<?xml version="1.0" standalone="no"?>
<!DOCTYPE svg PUBLIC "-//W3C//DTD SVG 20010904//EN"
 "http://www.w3.org/TR/2001/REC-SVG-20010904/DTD/svg10.dtd">
<svg version="1.0" xmlns="http://www.w3.org/2000/svg"
 width="4118.000000pt" height="3340.000000pt" viewBox="0 0 4118.000000 3340.000000"
 preserveAspectRatio="xMidYMid meet">

<g transform="translate(0.000000,3340.000000) scale(0.100000,-0.100000)"
fill="#000000" stroke="none">
<path d="M3958 18927 c-9 -19 -45 -65 -80 -102 -298 -320 -1082 -749 -2778
-1525 -195 -89 -474 -220 -620 -290 -146 -70 -290 -139 -320 -152 -106 -47
-160 -114 -160 -198 0 -35 4 -43 38 -64 48 -31 3984 -2158 3986 -2154 1 2 -10
1019 -24 2262 -24 2134 -26 2257 -42 2223z"/>
</g>
</svg>
