<svg width="63" height="63" viewBox="0 0 63 63" fill="none" xmlns="http://www.w3.org/2000/svg">
<path fill-rule="evenodd" clip-rule="evenodd" d="M31.5 62.2455C48.4803 62.2455 62.2455 48.4803 62.2455 31.5C62.2455 14.5197 48.4803 0.754491 31.5 0.754491C14.5197 0.754491 0.754491 14.5197 0.754491 31.5C0.754491 48.4803 14.5197 62.2455 31.5 62.2455ZM31.5 63C48.897 63 63 48.897 63 31.5C63 14.103 48.897 0 31.5 0C14.103 0 0 14.103 0 31.5C0 48.897 14.103 63 31.5 63Z" fill="#ECECEC"/>
<path d="M31 11L31.3551 20.7113C31.5724 26.6527 36.2761 31.4175 42.1384 31.6347L52 32L42.1384 32.3653C36.2761 32.5825 31.5724 37.3473 31.3551 43.2887L31 53L30.6449 43.2887C30.4276 37.3473 25.7239 32.5825 19.8616 32.3653L10 32L19.8616 31.6347C25.7239 31.4175 30.4276 26.6527 30.6449 20.7113L31 11Z" fill="#ECECEC"/>
</svg>
