<svg width="247" height="196" viewBox="0 0 247 196" fill="none" xmlns="http://www.w3.org/2000/svg">
<path d="M43.5838 35.9275L44.2201 43.4228L42.3817 43.5642C42.0281 39.1802 41.2503 36.9175 38.7048 36.9175H28.4518V73.0503C28.4518 75.5959 30.0074 76.1615 33.3308 76.1615V78H16.5018V76.1615C19.8252 76.1615 21.3808 75.5959 21.3808 73.0503V36.9175H11.1279C8.58231 36.9175 7.8045 39.1802 7.30953 43.6349L5.54178 43.4228L6.24888 35.9275L6.67314 32.0385C8.08734 32.8163 9.43083 32.9577 11.835 32.9577H38.0684C40.4725 32.9577 41.7453 32.8163 43.2302 32.0385L43.5838 35.9275ZM74.268 73.0503C74.268 75.5959 75.3287 76.1615 77.5207 76.1615V78H64.2272V76.1615C66.4192 76.1615 67.4799 75.5959 67.4799 73.0503V58.4133C67.4799 52.2616 66.4899 49.2917 62.3887 49.2917C58.3583 49.2917 54.4692 52.8272 54.4692 65.2722V73.0503C54.4692 75.5959 55.5299 76.1615 57.7219 76.1615V78H44.4284V76.1615C46.6204 76.1615 47.6811 75.5959 47.6811 73.0503V37.9074C47.6811 35.3619 46.6204 34.7962 44.4284 34.7962V32.9577H54.4692V54.595H54.6106C55.1763 49.9281 58.2169 45.4027 64.4393 45.4027C71.1568 45.4027 74.268 49.5746 74.268 57.1405V73.0503ZM106.955 68.4541L108.37 69.0198C107.238 72.4139 104.127 78.495 95.9246 78.495C86.5909 78.495 80.3684 72.9089 80.3684 61.8074C80.3684 50.9888 86.0959 45.4027 95.0761 45.4027C103.491 45.4027 108.016 50.211 108.016 58.0598C108.016 59.5447 108.016 60.3932 107.875 61.5246L86.8737 62.161C87.0859 70.2926 91.0456 74.5352 97.551 74.5352C103.208 74.5352 105.753 70.929 106.955 68.4541ZM95.2882 48.7968C90.7628 48.7968 87.3687 51.8373 86.9445 59.8275L101.299 58.6962C101.511 57.7769 101.652 56.787 101.652 55.5849C101.652 51.9787 99.3187 48.7968 95.2882 48.7968ZM160.699 73.0503C160.699 75.5959 161.76 76.1615 163.952 76.1615V78H150.658V76.1615C152.85 76.1615 153.911 75.5959 153.911 73.0503V58.4133C153.911 52.2616 152.921 49.2917 148.82 49.2917C144.789 49.2917 140.9 52.8272 140.9 65.2722V73.0503C140.9 75.5959 141.961 76.1615 144.153 76.1615V78H130.859V76.1615C133.051 76.1615 134.112 75.5959 134.112 73.0503V58.4133C134.112 52.4737 133.193 49.2917 129.021 49.2917C125.556 49.2917 121.526 51.8373 121.526 65.2722V73.0503C121.526 75.5959 122.586 76.1615 124.778 76.1615V78H111.485V76.1615C113.677 76.1615 114.737 75.5959 114.737 73.0503V50.9888C114.737 48.4432 113.677 47.8775 111.485 47.8775V46.0391H121.526V54.3121H121.667C122.162 50.4938 124.637 45.4027 131.425 45.4027C137.011 45.4027 140.122 48.5846 140.759 54.595H141.041C141.607 49.9281 144.648 45.4027 150.87 45.4027C157.588 45.4027 160.699 49.5746 160.699 57.1405V73.0503ZM193.343 68.4541L194.757 69.0198C193.626 72.4139 190.515 78.495 182.312 78.495C172.979 78.495 166.756 72.9089 166.756 61.8074C166.756 50.9888 172.484 45.4027 181.464 45.4027C189.878 45.4027 194.404 50.211 194.404 58.0598C194.404 59.5447 194.404 60.3932 194.262 61.5246L173.261 62.161C173.474 70.2926 177.433 74.5352 183.939 74.5352C189.595 74.5352 192.141 70.929 193.343 68.4541ZM181.676 48.7968C177.151 48.7968 173.756 51.8373 173.332 59.8275L187.686 58.6962C187.898 57.7769 188.04 56.787 188.04 55.5849C188.04 51.9787 185.706 48.7968 181.676 48.7968Z" fill="#C23B22"/>
<path d="M56.0387 153.162L58.8675 153.615L56.4913 168.437L55.473 175H4.66863C5.57383 163.685 12.1365 152.823 20.3965 147.278L34.2008 138.113C42.1213 132.908 44.2711 128.269 44.2711 120.914C44.2711 112.767 39.1794 108.355 32.1641 108.355C23.6778 108.355 18.8124 113.56 18.8124 120.914C18.8124 125.78 20.1702 129.514 22.0937 133.587L8.40258 134.719C7.15793 130.985 6.59218 128.156 6.59218 124.761C6.59218 111.297 17.2283 101.792 32.3904 101.792C48.4577 101.792 56.0387 111.862 56.0387 120.914C56.0387 131.098 51.2864 137.887 42.3476 143.884L26.6197 154.407C21.1885 158.027 16.7757 162.101 15.7573 168.437L48.9103 166.853C52.9837 166.74 54.5678 161.988 56.0387 153.162ZM93.8167 101.792C111.694 101.792 123.462 117.407 123.462 138.226C123.462 159.046 111.694 175.792 93.8167 175.792C76.0521 175.792 64.2845 159.046 64.2845 138.226C64.2845 117.407 76.0521 101.792 93.8167 101.792ZM93.8167 169.569C106.376 169.569 111.694 158.254 111.694 138.226C111.694 118.312 106.376 108.015 93.8167 108.015C81.257 108.015 76.0521 118.312 76.0521 138.226C76.0521 158.254 81.257 169.569 93.8167 169.569ZM180.685 153.162L183.514 153.615L181.138 168.437L180.119 175H129.315C130.22 163.685 136.783 152.823 145.043 147.278L158.847 138.113C166.767 132.908 168.917 128.269 168.917 120.914C168.917 112.767 163.826 108.355 156.81 108.355C148.324 108.355 143.459 113.56 143.459 120.914C143.459 125.78 144.816 129.514 146.74 133.587L133.049 134.719C131.804 130.985 131.238 128.156 131.238 124.761C131.238 111.297 141.874 101.792 157.037 101.792C173.104 101.792 180.685 111.862 180.685 120.914C180.685 131.098 175.933 137.887 166.994 143.884L151.266 154.407C145.835 158.027 141.422 162.101 140.404 168.437L173.556 166.853C177.63 166.74 179.214 161.988 180.685 153.162ZM217.671 125.101C231.928 125.101 242.338 134.719 242.338 150.446C242.338 167.193 230.909 175.792 215.408 175.792C200.019 175.792 190.289 165.495 190.289 153.615C190.289 150.673 190.628 147.731 191.533 144.449L205.111 145.694C203.414 148.749 202.509 152.483 202.509 156.557C202.509 163.685 207.714 169.229 215.408 169.229C225.478 169.229 230.57 163.119 230.57 150.446C230.57 136.982 222.423 131.664 213.258 131.664C204.998 131.664 201.264 134.945 198.549 139.245L193.344 138.792L194.928 102.923H240.075L238.943 110.165L237.359 120.349L234.417 119.896C235.322 113.899 234.87 111.523 230.796 111.523H202.056L200.133 132.342C203.64 127.816 210.203 125.101 217.671 125.101Z" fill="#ECECEC"/>
</svg>
