<svg width="1440" height="1397" viewBox="0 0 1440 1397" fill="none" xmlns="http://www.w3.org/2000/svg">
<g clip-path="url(#clip0_42_69)">
<rect width="1440" height="1397" fill="#161616"/>
<ellipse cx="720" cy="482.435" rx="286.747" ry="277.458" fill="#FFA061" fill-opacity="0.1"/>
<ellipse cx="720" cy="482.435" rx="357" ry="345.435" fill="#FFA061" fill-opacity="0.05"/>
<ellipse cx="719.361" cy="481.816" rx="230.192" ry="222.735" fill="#FFA061" fill-opacity="0.2"/>
<ellipse cx="719.438" cy="481.891" rx="191.558" ry="185.353" fill="#FFA061" fill-opacity="0.4"/>
<ellipse cx="719.515" cy="481.966" rx="152.925" ry="147.971" fill="#FFA061" fill-opacity="0.6"/>
<ellipse cx="719.768" cy="482.211" rx="115.901" ry="112.146" fill="#FFA061" fill-opacity="0.8"/>
<ellipse cx="719.846" cy="482.286" rx="77.2672" ry="74.7641" fill="#FFA061"/>
<ellipse cx="720.249" cy="482.676" rx="54.7309" ry="52.9579" fill="#FFB786"/>
<ellipse cx="719.395" cy="481.85" rx="33.8044" ry="32.7093" fill="#FEE1CE"/>
<ellipse cx="16.0973" cy="15.5759" rx="16.0973" ry="15.5759" transform="matrix(1 0 0 -1 704.229 497.695)" fill="#FFF7F2"/>
<path d="M412.093 427.802L414.921 428.481L412.093 440.248L410.848 445H364.798V442.058C368.984 442.058 371.021 441.153 371.021 437.08V380.846C371.021 376.773 368.984 375.868 364.798 375.868V372.926H388.558V375.868C384.372 375.868 382.335 376.773 382.335 380.846V438.664H404.512C408.585 438.664 410.395 434.704 412.093 427.802ZM420.463 377.565L428.496 369.532L436.643 377.565L428.496 385.712L420.463 377.565ZM434.153 437.08C434.153 441.153 435.851 442.058 439.358 442.058V445H418.087V442.058C421.594 442.058 423.291 441.153 423.291 437.08V401.778C423.291 397.705 421.594 396.8 418.087 396.8V393.858H434.153V437.08ZM490.732 393.858V396.008L480.435 399.402C483.038 401.552 485.64 405.852 485.64 411.283C485.64 420.787 478.172 428.82 465.047 428.82C462.219 428.82 459.616 428.481 457.354 427.689L453.393 431.083C454.412 432.328 456.222 433.459 462.332 433.912L475.231 434.817C484.395 435.496 490.279 439.795 490.279 447.829C490.279 456.315 483.943 464.122 466.518 464.122C449.433 464.122 441.853 456.993 443.097 447.376L454.185 441.492C448.189 440.474 444.568 435.835 445.473 429.612L454.299 426.557C448.076 423.502 444.568 417.619 444.568 410.83C444.568 400.986 452.036 392.84 465.047 392.84C467.763 392.84 470.252 393.179 472.402 393.858H490.732ZM465.274 423.502C471.949 423.502 474.778 418.411 474.778 410.83C474.778 403.362 471.949 398.158 465.274 398.158C458.485 398.158 455.77 403.362 455.77 410.83C455.77 418.411 458.485 423.502 465.274 423.502ZM471.384 442.737L458.032 441.832L451.696 447.942C450.339 453.599 453.959 459.369 466.632 459.369C476.588 459.369 480.775 455.07 480.775 450.205C480.775 445.679 477.833 443.19 471.384 442.737ZM540.648 437.08C540.648 441.153 542.345 442.058 545.853 442.058V445H524.582V442.058C528.089 442.058 529.786 441.153 529.786 437.08V413.659C529.786 403.815 528.202 399.063 521.64 399.063C515.19 399.063 508.967 404.72 508.967 424.634V437.08C508.967 441.153 510.665 442.058 514.172 442.058V445H492.901V442.058C496.408 442.058 498.105 441.153 498.105 437.08V380.846C498.105 376.773 496.408 375.868 492.901 375.868V372.926H508.967V407.549H509.194C510.099 400.081 514.964 392.84 524.921 392.84C535.67 392.84 540.648 399.515 540.648 411.622V437.08ZM582.625 400.194H564.635V430.291C564.635 435.722 567.577 438.89 572.329 438.89C577.647 438.89 579.118 434.251 579.57 430.404H581.833C581.72 435.722 580.475 445.792 568.029 445.792C558.865 445.792 553.773 440.022 553.773 429.612V400.194H545.4V395.782C555.81 394.424 559.883 388.54 560.788 378.131H564.635V395.782L573.8 393.858H582.625V400.194ZM633.357 437.08C633.357 441.153 635.054 442.058 638.562 442.058V445H617.29V442.058C620.798 442.058 622.495 441.153 622.495 437.08V413.659C622.495 403.815 620.911 399.063 614.348 399.063C607.899 399.063 601.676 404.72 601.676 424.634V437.08C601.676 441.153 603.373 442.058 606.881 442.058V445H585.609V442.058C589.117 442.058 590.814 441.153 590.814 437.08V380.846C590.814 376.773 589.117 375.868 585.609 375.868V372.926H601.676V407.549H601.902C602.808 400.081 607.673 392.84 617.63 392.84C628.379 392.84 633.357 399.515 633.357 411.622V437.08ZM665.348 392.84C680.849 392.84 689.787 403.249 689.787 419.316C689.787 435.383 680.849 445.792 665.348 445.792C649.847 445.792 640.909 435.383 640.909 419.316C640.909 403.249 649.847 392.84 665.348 392.84ZM665.348 440.361C674.739 440.361 678.247 431.309 678.247 419.316C678.247 407.322 674.739 398.271 665.348 398.271C655.957 398.271 652.449 407.322 652.449 419.316C652.449 431.309 655.957 440.361 665.348 440.361ZM739.253 437.08C739.253 441.153 740.951 442.058 744.458 442.058V445H728.391V433.12C726.92 439.795 721.829 445.792 712.777 445.792C702.028 445.792 697.05 440.248 697.05 428.141V401.778C697.05 397.705 695.353 396.8 691.845 396.8V393.858H707.912V424.973C707.912 434.817 709.496 439.569 716.058 439.569C722.508 439.569 728.391 433.912 728.391 413.998V401.778C728.391 397.705 726.694 396.8 723.187 396.8V393.858H739.253V437.08ZM775.786 415.356C785.856 418.071 788.232 424.068 788.232 430.631C788.232 443.642 776.691 445.792 768.432 445.792C757.57 445.792 751.46 441.266 748.631 437.646V423.502H750.555C752.818 435.043 759.041 440.361 768.092 440.361C774.428 440.361 778.502 437.306 778.502 431.649C778.502 427.462 776.012 424.973 771.26 423.729L761.19 421.126C753.723 419.203 749.763 414.903 749.763 408.454C749.763 399.629 756.778 392.84 769.337 392.84C775.673 392.84 781.783 394.876 785.743 398.271L786.874 411.622L784.951 411.848C781.783 403.249 777.257 398.271 769.337 398.271C763.793 398.271 759.493 401.326 759.493 405.965C759.493 409.359 760.738 411.283 767.074 412.98L775.786 415.356ZM834.89 429.725L837.153 430.631C835.342 436.061 830.364 445.792 817.239 445.792C802.304 445.792 792.347 436.854 792.347 419.09C792.347 401.778 801.512 392.84 815.881 392.84C829.346 392.84 836.587 400.534 836.587 413.093C836.587 415.469 836.587 416.827 836.361 418.637L802.756 419.655C803.096 432.667 809.432 439.456 819.841 439.456C828.893 439.456 832.966 433.685 834.89 429.725ZM816.221 398.271C808.979 398.271 803.548 403.136 802.869 415.922L825.838 414.111C826.178 412.64 826.404 411.056 826.404 409.133C826.404 403.362 822.67 398.271 816.221 398.271ZM919.985 437.419C921.116 441.379 924.171 442.058 928.358 442.058V445H900.863V442.058C907.652 442.058 909.802 441.379 908.67 437.419L904.937 424.181H880.61L876.876 437.419C875.745 441.379 877.895 442.058 884.684 442.058V445H860.357V442.058C864.544 442.058 867.599 441.379 868.73 437.419L885.023 380.507C886.154 376.547 884.005 375.868 877.216 375.868V372.926H901.655L919.985 437.419ZM882.421 417.845H903.126L892.83 381.525L882.421 417.845ZM958.195 392.84C969.396 392.84 978.787 398.497 978.787 419.316C978.787 440.135 969.396 445.792 958.195 445.792C949.596 445.792 943.599 440.022 941.675 434.025V466.95H925.609V464.008C929.116 464.008 930.813 463.103 930.813 459.03V401.778C930.813 397.705 929.116 396.8 925.609 396.8V393.858H941.675V403.815C943.486 398.158 949.482 392.84 958.195 392.84ZM955.366 440.361C965.21 440.361 967.246 431.309 967.246 419.316C967.246 407.436 964.983 398.271 955.366 398.271C949.03 398.271 941.675 402.797 941.675 419.316C941.675 435.835 949.03 440.361 955.366 440.361ZM1027.77 437.08C1027.77 441.153 1029.46 442.058 1032.97 442.058V445H1016.9V433.12C1015.43 439.795 1010.34 445.792 1001.29 445.792C990.541 445.792 985.563 440.248 985.563 428.141V401.778C985.563 397.705 983.865 396.8 980.358 396.8V393.858H996.425V424.973C996.425 434.817 998.009 439.569 1004.57 439.569C1011.02 439.569 1016.9 433.912 1016.9 413.998V401.778C1016.9 397.705 1015.21 396.8 1011.7 396.8V393.858H1027.77V437.08ZM1064.3 415.356C1074.37 418.071 1076.74 424.068 1076.74 430.631C1076.74 443.642 1065.2 445.792 1056.94 445.792C1046.08 445.792 1039.97 441.266 1037.14 437.646V423.502H1039.07C1041.33 435.043 1047.55 440.361 1056.6 440.361C1062.94 440.361 1067.01 437.306 1067.01 431.649C1067.01 427.462 1064.52 424.973 1059.77 423.729L1049.7 421.126C1042.24 419.203 1038.28 414.903 1038.28 408.454C1038.28 399.629 1045.29 392.84 1057.85 392.84C1064.19 392.84 1070.3 394.876 1074.26 398.271L1075.39 411.622L1073.46 411.848C1070.3 403.249 1065.77 398.271 1057.85 398.271C1052.31 398.271 1048.01 401.326 1048.01 405.965C1048.01 409.359 1049.25 411.283 1055.59 412.98L1064.3 415.356Z" fill="url(#paint0_linear_42_69)"/>
<g filter="url(#filter0_f_42_69)">
<ellipse cx="720.283" cy="1084.31" rx="662.283" ry="41.7073" fill="url(#paint1_radial_42_69)"/>
</g>
<path d="M456.645 1058.14L377.367 1106.85H1063.19L1035.5 1088.58H982.651L960 1058.14H908.406L874.429 1036.23L829.127 1050.84L821.577 1041.1H607.652L573.675 1050.84L566.125 1041.1L485.588 1066.67L456.645 1058.14Z" fill="#342B44"/>
<path d="M446.578 1069.1L435.253 1072.75V1082.5H446.578L459.162 1091.02L467.971 1077.63H455.387L459.162 1069.1H446.578Z" fill="#453243"/>
<path d="M523.34 1076.41L510.756 1058.14L539.699 1049.62V1058.14L551.025 1066.67V1076.41L532.149 1066.67L523.34 1076.41Z" fill="#453243"/>
<path d="M678.122 1053.27L627.786 1072.75H673.088L688.189 1077.63L719.648 1072.75H756.141L693.222 1087.37L699.514 1101.98H737.266L724.682 1092.24L821.578 1072.75H787.601L793.893 1061.8L747.333 1058.14L708.323 1061.8L678.122 1053.27Z" fill="#453243"/>
<path d="M859.329 1038.66L812.769 1044.75V1053.27H840.453L859.329 1061.8V1038.66Z" fill="#453243"/>
<path d="M904.631 1073.97L912.181 1061.8C912.181 1059.36 914.447 1055.95 923.507 1061.8C932.567 1067.64 942.383 1064.23 946.158 1061.8C946.577 1065.85 945.654 1075.68 938.608 1082.5C929.799 1091.02 919.732 1082.5 919.732 1073.97C919.732 1067.15 909.665 1071.13 904.631 1073.97Z" fill="#453243"/>
<path d="M684.451 472.313V513.912M706.971 472.313V513.912M733.584 472.313V513.912M755.08 472.313V513.912" stroke="#342B44" stroke-width="2"/>
<path d="M667.049 470.332H771.458" stroke="#F29455" stroke-width="2"/>
<path d="M667.049 511.931H773.505" stroke="#F29455" stroke-width="2"/>
<path fill-rule="evenodd" clip-rule="evenodd" d="M721.277 426.634L762.245 462.408H772.481V470.332H667.049V462.408H678.309L719.277 426.634V401H721.277V426.634Z" fill="#342B44"/>
<path d="M776.576 513.912H663.979C666.435 518.666 671.144 521.175 673.191 521.835V568.387H765.316V521.835C769.411 521.835 774.529 516.553 776.576 513.912Z" fill="url(#paint2_linear_42_69)"/>
<path d="M776.576 569.377H663.979L639.412 1008.15H798.072L776.576 569.377Z" fill="url(#paint3_linear_42_69)"/>
<path d="M699.805 569.377H662.955L639.412 1008.15H674.215L699.805 569.377Z" fill="url(#paint4_linear_42_69)"/>
<path d="M738.703 569.377H777.6L798.072 1009.14H764.293L738.703 569.377Z" fill="url(#paint5_linear_42_69)"/>
<path d="M662.955 594.138V572.348H776.576V594.138H662.955Z" fill="#342B44" fill-opacity="0.5"/>
<path d="M700.829 652.148C700.829 642.538 708.62 634.747 718.23 634.747C727.841 634.747 735.632 642.538 735.632 652.148V678.327H700.829V652.148Z" fill="#342B44"/>
<path d="M696.734 938.621C696.734 925.054 707.733 914.055 721.301 914.055C734.869 914.055 745.868 925.054 745.868 938.621V1001.21H696.734V938.621Z" fill="#342B44"/>
<rect x="631.223" y="1001.21" width="180.156" height="45.5608" fill="#342B44"/>
<path d="M645.554 567.396H791.93V574.329H780.159C777.293 574.329 771.117 584.234 768.387 589.186V574.329H752.01H750.189C747.109 576.066 742.211 584.377 739.726 589.186V574.329H697.758V589.186L684.451 574.329H668.073V589.186L654.766 574.329H645.554V567.396Z" fill="#342B44"/>
<path d="M650.672 565.415H787.836" stroke="#F29455" stroke-width="2"/>
<path d="M1243.34 1231L1091.85 1145.82H1168.62L1301.69 1194.35L1243.34 1231Z" fill="url(#paint6_linear_42_69)"/>
<path d="M1087.75 1145.65L1127.67 1045.61L1187.04 1145.65C1188.07 1149.94 1189.09 1158.72 1185 1159.51C1179.88 1160.5 1112.32 1159.51 1100.04 1157.53C1090.21 1155.95 1087.75 1148.95 1087.75 1145.65Z" fill="#342B44"/>
<path d="M1126.65 1143.66C1133.2 1140.5 1123.92 1084.9 1118.46 1057.5C1118.46 1048.58 1121.33 1028.18 1132.79 1017.88C1144.26 1007.58 1177.15 1097.44 1192.16 1143.66C1167.6 1144.99 1120.1 1146.83 1126.65 1143.66Z" fill="#372D44"/>
<path d="M242.25 1045.56L268.349 981.405L307.163 1045.56C307.832 1048.31 308.502 1053.94 305.825 1054.45C302.479 1055.08 258.311 1054.45 250.281 1053.18C243.857 1052.16 242.25 1047.67 242.25 1045.56Z" fill="#342B44"/>
<path d="M267.954 1043.66C272.14 1041.61 266.21 1005.57 262.722 987.805C262.722 982.027 264.554 968.802 271.878 962.125C279.203 955.448 300.217 1013.7 309.809 1043.66C294.113 1044.52 263.769 1045.71 267.954 1043.66Z" fill="#372D44"/>
<path d="M403.981 490.556C398.802 490.556 384.191 497.819 377.367 502.441C379.824 502.441 402.957 493.527 411.146 493.527C419.335 493.527 419.335 497.489 425.477 500.46C430.533 502.907 439.807 502.441 439.807 502.441L434.689 490.556C436.395 489.235 440.421 486.594 442.878 486.594H477.681C477.681 486.594 454.138 484.613 449.02 482.632C444.925 481.047 432.301 484.283 425.477 487.584C421.041 488.245 412.17 490.556 403.981 490.556Z" fill="#342B44"/>
<path d="M477.681 487.17H443.902L434.689 491.131L440.831 502.026" stroke="#B06A4C"/>
<path d="M991.535 501.283C997.676 501.283 1010.16 502.274 1010.98 506.235C1011.8 510.197 1011.32 512.508 1010.98 513.169" stroke="#B06A4C"/>
<path d="M994.717 500.831C993.738 500.987 992.988 501.145 992.558 501.283C992.745 500.923 993.543 500.792 994.717 500.831C1000.73 499.874 1015.36 499.005 1017.13 503.264C1018.76 507.226 1021.22 506.896 1022.24 506.236V501.283L1031.46 510.197L1028.38 512.178L1034.53 528.026C1030.77 524.724 1023.27 517.725 1023.27 516.14V512.178H1012.01C1011.67 510.858 1011.19 507.82 1012.01 506.236C1012.84 504.616 999.988 501.008 994.717 500.831Z" fill="#342B44"/>
<path d="M567.662 808.097C569.368 807.288 569.795 796.306 569.795 790.916C577.472 790.916 575.126 804.391 572.993 811.128H581.523C584.082 811.128 582.59 815.845 581.523 818.203C578.68 817.192 573.42 815.777 575.126 818.203C577.258 821.235 567.662 823.256 565.53 824.266L557 828.309L562.331 820.224L552.735 815.171H565.53C565.53 813.15 565.956 808.905 567.662 808.097Z" fill="#342B44"/>
<rect width="1440" height="1397" transform="translate(0 1382)" fill="#161616"/>
</g>
<defs>
<filter id="filter0_f_42_69" x="-42" y="942.598" width="1524.57" height="283.415" filterUnits="userSpaceOnUse" color-interpolation-filters="sRGB">
<feFlood flood-opacity="0" result="BackgroundImageFix"/>
<feBlend mode="normal" in="SourceGraphic" in2="BackgroundImageFix" result="shape"/>
<feGaussianBlur stdDeviation="50" result="effect1_foregroundBlur_42_69"/>
</filter>
<linearGradient id="paint0_linear_42_69" x1="720" y1="414.733" x2="720" y2="466.06" gradientUnits="userSpaceOnUse">
<stop stop-color="#EBEBEB"/>
<stop offset="1" stop-color="#342B44"/>
</linearGradient>
<radialGradient id="paint1_radial_42_69" cx="0" cy="0" r="1" gradientUnits="userSpaceOnUse" gradientTransform="translate(721.307 1084.31) rotate(37.7353) scale(339.116 5186.11)">
<stop stop-color="#FFB786"/>
<stop offset="1" stop-color="#FFB786" stop-opacity="0.5"/>
</radialGradient>
<linearGradient id="paint2_linear_42_69" x1="720.277" y1="513.912" x2="721.236" y2="575.321" gradientUnits="userSpaceOnUse">
<stop stop-color="#342B44"/>
<stop offset="1" stop-color="#543B45"/>
</linearGradient>
<linearGradient id="paint3_linear_42_69" x1="719.254" y1="683.279" x2="719.254" y2="1007.16" gradientUnits="userSpaceOnUse">
<stop stop-color="#7C4D45"/>
<stop offset="1" stop-color="#423244"/>
</linearGradient>
<linearGradient id="paint4_linear_42_69" x1="687.522" y1="551.549" x2="659.723" y2="1026.09" gradientUnits="userSpaceOnUse">
<stop stop-color="#6B4745"/>
<stop offset="1" stop-color="#372D44"/>
</linearGradient>
<linearGradient id="paint5_linear_42_69" x1="750.778" y1="551.509" x2="779.18" y2="1027.05" gradientUnits="userSpaceOnUse">
<stop stop-color="#6B4745"/>
<stop offset="1" stop-color="#372D44"/>
</linearGradient>
<linearGradient id="paint6_linear_42_69" x1="1128.7" y1="1145.82" x2="1283.27" y2="1224.13" gradientUnits="userSpaceOnUse">
<stop stop-color="#352B44" stop-opacity="0.5"/>
<stop offset="1" stop-color="#362C44" stop-opacity="0"/>
</linearGradient>
<clipPath id="clip0_42_69">
<rect width="1440" height="1397" fill="white"/>
</clipPath>
</defs>
</svg>
