<svg version="1.1" id="Layer_1" xmlns="http://www.w3.org/2000/svg" xmlns:xlink="http://www.w3.org/1999/xlink" x="0px" y="0px"
	 width="100%" viewBox="0 0 4118 3340" enable-background="new 0 0 4118 3340" xml:space="preserve">
<path fill="#EBEBEB" opacity="1.000000" stroke="none" 
	d="
M4114.000000,3342.000000 
	C4040.624756,3342.000000 3967.249756,3342.000000 3893.487793,3341.231689 
	C3889.653564,3339.750977 3886.217041,3338.476074 3882.757568,3338.412109 
	C3839.835205,3337.614502 3796.909668,3337.005371 3753.985107,3336.323242 
	C3713.060059,3335.672852 3672.135498,3335.012451 3631.210938,3334.321045 
	C3593.285889,3333.680664 3555.360840,3333.006836 3517.436279,3332.322754 
	C3481.510986,3331.674072 3445.586182,3331.004883 3409.661377,3330.322998 
	C3375.402832,3329.672607 3341.144287,3329.001221 3306.886230,3328.324707 
	C3273.627686,3327.667969 3240.368896,3327.014160 3207.111328,3326.320801 
	C3176.518799,3325.683350 3145.927490,3324.996826 3115.335693,3324.326660 
	C3085.077393,3323.663574 3054.818604,3323.007812 3024.560547,3322.322510 
	C2995.968506,3321.675049 2967.376465,3321.002441 2938.784912,3320.323975 
	C2911.192871,3319.669434 2883.600830,3319.002930 2856.009277,3318.324219 
	C2829.417236,3317.670166 2802.825439,3317.006592 2776.233887,3316.322998 
	C2750.975098,3315.673828 2725.716797,3314.996826 2700.458252,3314.325928 
	C2675.532959,3313.663574 2650.607422,3313.010742 2625.682861,3312.321777 
	C2602.423584,3311.678711 2579.165283,3310.994873 2555.906738,3310.328125 
	C2532.648193,3309.661133 2509.388916,3309.008545 2486.131104,3308.322510 
	C2464.205078,3307.675781 2442.279785,3307.001221 2420.354736,3306.324707 
	C2399.095703,3305.668701 2377.837158,3305.002441 2356.578613,3304.325195 
	C2335.986328,3303.669189 2315.394043,3302.998535 2294.802246,3302.326416 
	C2274.543213,3301.665283 2254.284180,3301.014648 2234.026367,3300.320312 
	C2215.433105,3299.683105 2196.841797,3298.994629 2178.249512,3298.327881 
	C2141.065186,3296.994629 2103.880127,3295.681152 2066.696777,3294.317139 
	C2050.102539,3293.708496 2033.512085,3292.996338 2016.919678,3292.334229 
	C1983.401855,3290.997559 1949.882080,3289.712891 1916.366943,3288.312012 
	C1886.179321,3287.050537 1855.996582,3285.674805 1825.812500,3284.326904 
	C1796.293823,3283.008545 1766.777466,3281.630371 1737.257568,3280.339844 
	C1720.334839,3279.600098 1703.407104,3278.971436 1686.480835,3278.314453 
	C1679.832397,3278.056396 1673.174438,3277.987061 1666.533691,3277.604980 
	C1648.660645,3276.577393 1630.796143,3275.402344 1612.925415,3274.333252 
	C1597.396973,3273.404297 1581.864624,3272.540527 1566.102905,3271.634521 
	C1565.294800,3267.778564 1564.372192,3264.576660 1563.978271,3261.311035 
	C1560.051636,3228.757324 1556.022217,3196.214355 1552.397583,3163.626221 
	C1548.186401,3125.762939 1544.275269,3087.865723 1540.373047,3049.968994 
	C1535.622437,3003.831543 1531.003296,2957.680176 1526.354248,2911.532227 
	C1523.664307,2884.831543 1520.998413,2858.128418 1518.373657,2831.421143 
	C1513.674683,2783.610596 1509.028931,2735.794189 1504.334229,2687.983154 
	C1501.032104,2654.352051 1497.611450,2620.732178 1494.377441,2587.094727 
	C1490.191284,2543.553711 1486.211060,2499.992920 1482.005859,2456.453857 
	C1478.216064,2417.215332 1474.212280,2377.997559 1470.360352,2338.765137 
	C1467.640747,2311.067139 1464.979248,2283.363770 1462.359497,2255.656006 
	C1458.834717,2218.375000 1455.408447,2181.084717 1451.877563,2143.804199 
	C1448.597412,2109.169434 1445.174194,2074.548340 1441.931152,2039.910156 
	C1439.706421,2016.149658 1437.864258,1992.352173 1435.476196,1968.608887 
	C1434.567627,1959.575195 1436.133057,1951.375610 1442.069824,1944.644531 
	C1447.082886,1938.961060 1452.530273,1933.432251 1458.620850,1928.977051 
	C1469.881348,1920.740479 1481.651978,1913.182007 1493.396484,1905.630981 
	C1507.617920,1896.487427 1513.676392,1883.034790 1515.191406,1866.814941 
	C1505.330322,1865.524902 1495.870483,1864.287354 1486.537842,1863.066528 
	C1484.586548,1847.752930 1485.271362,1785.211182 1487.275269,1778.958252 
	C1492.972046,1779.412720 1498.584106,1780.331665 1504.167358,1780.180908 
	C1510.531494,1780.009277 1511.640625,1778.165161 1511.741943,1770.085327 
	C1474.869995,1764.968140 1437.921143,1759.840210 1400.790039,1754.687134 
	C1400.790039,1702.888428 1400.790039,1652.013062 1400.790039,1601.264160 
	C1404.144043,1600.297363 1407.044800,1599.461182 1411.938965,1598.050415 
	C1402.310059,1590.552856 1394.497681,1583.866943 1386.091064,1578.037964 
	C1361.694092,1561.121704 1335.679199,1547.232300 1308.052368,1536.185913 
	C1298.919678,1532.534302 1290.408203,1526.991455 1282.215820,1521.425415 
	C1274.663696,1516.294067 1272.337036,1508.387207 1274.048950,1499.366089 
	C1274.976074,1494.480835 1276.123169,1489.601196 1276.558350,1484.665161 
	C1277.963135,1468.731445 1272.738037,1455.316772 1260.088989,1445.326416 
	C1253.233521,1439.911987 1245.247192,1439.432617 1237.712891,1443.606079 
	C1230.328369,1447.696777 1224.146606,1453.450928 1221.963257,1462.069824 
	C1220.753052,1466.846436 1219.849243,1471.832764 1219.777832,1476.738647 
	C1219.622803,1487.382080 1220.303955,1498.035522 1220.247070,1508.682861 
	C1220.184692,1520.368164 1214.894043,1529.017456 1204.190674,1534.125732 
	C1199.992432,1536.129028 1195.896973,1538.376831 1191.603760,1540.147461 
	C1171.950562,1548.252441 1152.213623,1556.154053 1132.566895,1564.274414 
	C1118.712402,1570.000732 1104.927246,1575.959351 1094.385498,1587.179199 
	C1092.056885,1589.657349 1090.323120,1592.694336 1087.466797,1596.649048 
	C1092.417236,1598.600586 1095.921021,1599.981934 1099.344482,1601.331543 
	C1099.344482,1651.000854 1099.344482,1700.793823 1099.344482,1750.663330 
	C1096.894897,1751.364624 1095.360596,1752.011475 1093.767700,1752.228516 
	C1073.750000,1754.957153 1053.729126,1757.664673 1033.697998,1760.292969 
	C1018.265259,1762.318115 1002.798279,1764.092041 987.386597,1766.261963 
	C982.622131,1766.932861 977.335327,1767.566895 975.611389,1774.429810 
	C977.607788,1775.968262 979.414246,1778.067627 981.695007,1778.974731 
	C986.883179,1781.038574 988.438232,1784.789062 988.372559,1789.951538 
	C988.246765,1799.830811 988.798279,1809.739746 988.223267,1819.587158 
	C987.373840,1834.135986 985.730530,1848.637207 984.529053,1863.167358 
	C983.392639,1876.911865 984.694885,1889.826416 997.225403,1898.743530 
	C999.387817,1900.282227 1001.263733,1902.224731 1003.431702,1903.754272 
	C1014.576172,1911.617676 1025.831787,1919.324341 1036.930542,1927.251221 
	C1044.503662,1932.660278 1052.117432,1938.058105 1059.276611,1943.987671 
	C1065.286133,1948.964722 1069.402710,1954.896484 1068.486206,1963.741821 
	C1066.982056,1978.256714 1066.590210,1992.883179 1065.495972,2007.445068 
	C1063.882324,2028.918213 1061.966064,2050.368408 1060.366577,2071.842529 
	C1059.257202,2086.735596 1058.605225,2101.662354 1057.495605,2116.555420 
	C1055.895508,2138.031006 1053.956177,2159.481201 1052.371704,2180.957764 
	C1051.272827,2195.852295 1050.682007,2210.784180 1049.588745,2225.679199 
	C1047.963867,2247.818848 1046.016113,2269.934814 1044.359497,2292.072266 
	C1043.294678,2306.302246 1042.617920,2320.561035 1041.567993,2334.792236 
	C1039.910156,2357.262451 1038.015259,2379.715332 1036.355713,2402.185547 
	C1035.304565,2416.416992 1034.614868,2430.675293 1033.555176,2444.906006 
	C1031.906616,2467.043457 1030.002197,2489.161865 1028.359009,2511.299805 
	C1027.302734,2525.531006 1026.656128,2539.792480 1025.584839,2554.022217 
	C1023.943359,2575.827148 1022.002991,2597.609619 1020.365356,2619.414795 
	C1019.271729,2633.976074 1018.604919,2648.569092 1017.530273,2663.131836 
	C1015.896484,2685.270996 1013.996216,2707.390137 1012.360718,2729.529053 
	C1011.284851,2744.092285 1010.610046,2758.684814 1009.515076,2773.246338 
	C1007.900391,2794.719727 1005.966003,2816.168945 1004.369934,2837.643555 
	C1003.262878,2852.537598 1002.651794,2867.468506 1001.540222,2882.362061 
	C999.937561,2903.836426 997.967590,2925.283691 996.373474,2946.758789 
	C995.268005,2961.652588 994.679138,2976.584473 993.595337,2991.480225 
	C991.960327,3013.952148 990.030457,3036.402832 988.350891,3058.871826 
	C987.287170,3073.102295 986.562500,3087.358398 985.485413,3101.587646 
	C983.860168,3123.060059 982.014587,3144.515625 980.350342,3165.985107 
	C979.276306,3179.841553 978.358948,3193.710205 977.283325,3208.808594 
	C970.885803,3207.421387 964.968384,3206.766602 959.492554,3204.849854 
	C920.876465,3191.334229 883.147217,3175.815918 847.048767,3156.341309 
	C782.209473,3121.361328 725.798340,3075.937988 677.358459,3020.599121 
	C624.151672,2959.814453 583.065613,2891.175293 548.562988,2818.487793 
	C526.470337,2771.944336 507.848450,2723.944580 490.457642,2675.432861 
	C466.175934,2607.699219 448.776306,2538.331543 438.221771,2467.180176 
	C430.678925,2416.331543 426.221893,2365.172119 422.444458,2313.952393 
	C420.516510,2287.811035 419.541931,2261.595459 418.381622,2235.402588 
	C417.499390,2215.486816 416.951965,2195.555176 416.349792,2175.627930 
	C415.626831,2151.703857 415.007751,2127.776855 414.336517,2103.851074 
	C413.674652,2080.258545 413.073517,2056.664062 412.313385,2033.074463 
	C411.767792,2016.144531 411.149261,1999.214478 410.305267,1982.297241 
	C408.915863,1954.447144 407.317627,1926.607422 405.902039,1897.760742 
	C405.438812,1850.126343 404.853424,1803.494629 404.329956,1756.862183 
	C403.634399,1694.902466 402.914093,1632.942627 402.345642,1570.981689 
	C401.987915,1531.995605 401.906799,1493.006958 401.633911,1454.019897 
	C401.615662,1451.414917 401.024139,1448.813965 400.881744,1445.333862 
	C407.427551,1408.480225 409.211426,1372.054932 411.623413,1335.697144 
	C412.545990,1321.790405 413.192719,1307.858154 413.619019,1293.927002 
	C414.432404,1267.343750 414.975403,1240.752319 415.671753,1214.165283 
	C416.307037,1189.909180 416.725433,1165.643066 417.740509,1141.402344 
	C418.711914,1118.204956 419.818604,1094.991333 421.782440,1071.862671 
	C424.640778,1038.198853 427.572723,1004.509521 431.841431,971.005371 
	C437.073669,929.938477 442.861816,888.903015 449.933929,848.118347 
	C463.508423,769.834351 482.867035,692.987000 509.511047,618.015442 
	C531.057922,557.386292 557.444641,499.046387 590.391541,443.781891 
	C631.579773,374.693542 681.940979,313.184753 743.474792,261.098480 
	C785.810059,225.263062 831.934875,195.096268 881.588074,170.509415 
	C928.436646,147.311295 977.313477,129.309952 1027.826294,115.697632 
	C1064.705566,105.759346 1102.005249,97.680649 1139.798584,92.597679 
	C1174.911133,87.875259 1210.278809,84.940170 1245.588745,81.837746 
	C1266.061523,80.038956 1286.635620,79.331688 1307.175415,78.374100 
	C1326.088379,77.492348 1345.020996,77.034744 1363.936768,76.207069 
	C1391.455933,75.002930 1418.965576,73.581635 1446.483765,72.355179 
	C1463.735352,71.586296 1480.993896,70.966156 1498.251831,70.349617 
	C1518.172607,69.637962 1538.096558,69.015945 1558.018433,68.332245 
	C1576.941650,67.682831 1595.862305,66.963867 1614.786621,66.348633 
	C1636.707031,65.635994 1658.630615,65.018234 1680.551880,64.331383 
	C1701.141357,63.686260 1721.728760,62.972298 1742.318848,62.347893 
	C1765.572754,61.642708 1788.828857,61.010410 1812.083618,60.333858 
	C1834.672363,59.676682 1857.260010,58.981140 1879.849243,58.343590 
	C1904.436646,57.649651 1929.025391,57.006226 1953.613403,56.334942 
	C1977.868408,55.672752 2002.122681,54.985760 2026.378174,54.341759 
	C2052.298828,53.653542 2078.220703,53.009159 2104.141602,52.333981 
	C2129.396484,51.676151 2154.650635,50.986881 2179.905762,50.342010 
	C2206.826416,49.654606 2233.747803,49.005959 2260.668945,48.335068 
	C2287.256592,47.672482 2313.844238,46.993713 2340.432129,46.339558 
	C2368.019531,45.660809 2395.607422,45.002972 2423.195068,44.336159 
	C2450.782715,43.669346 2478.369873,42.996391 2505.957764,42.337837 
	C2534.211670,41.663376 2562.465820,41.000206 2590.719971,40.337444 
	C2619.307373,39.666866 2647.894775,38.999691 2676.482178,38.336815 
	C2705.402832,37.666218 2734.323486,37.002731 2763.244141,36.336082 
	C2792.164795,35.669437 2821.085693,34.999760 2850.006348,34.336880 
	C2879.260254,33.666363 2908.513916,33.005356 2937.767822,32.335018 
	C2966.688477,31.672314 2995.608887,30.997395 3024.529785,30.338423 
	C3054.116699,29.664270 3083.704102,29.005760 3113.291260,28.335247 
	C3142.545166,27.672287 3171.799072,27.000011 3201.052979,26.337097 
	C3230.640137,25.666630 3260.227539,25.011312 3289.814453,24.333321 
	C3318.402100,23.678238 3346.989014,22.996710 3375.576660,22.337816 
	C3404.830322,21.663576 3434.084961,21.011566 3463.338623,20.333450 
	C3491.593018,19.678499 3519.846924,19.005754 3548.101074,18.335163 
	C3576.021973,17.672485 3603.942871,17.005873 3631.863770,16.335201 
	C3659.451416,15.672532 3687.039307,15.018146 3714.626465,14.331391 
	C3740.548096,13.686098 3766.468994,13.006917 3792.390137,12.335941 
	C3817.978027,11.673593 3843.566650,11.029430 3869.153564,10.327861 
	C3892.076172,9.699346 3914.997559,9.011527 3937.918945,8.335178 
	C3960.174561,7.678474 3982.427734,6.932772 4004.685547,6.361513 
	C4018.662354,6.002782 4032.647217,5.956128 4046.624756,5.615735 
	C4049.188232,5.553308 4051.738281,4.771293 4054.266113,4.197773 
	C4054.339844,4.181081 4054.095703,2.764117 4054.000000,2.000006 
	C4072.708252,2.000000 4091.416748,2.000000 4110.745117,2.682149 
	C4114.233398,5.588850 4114.853027,10.740431 4120.000000,10.000000 
	C4120.000000,13.428717 4120.000000,16.857433 4119.512207,20.457817 
	C4067.026855,54.148922 4015.306885,88.109001 3962.964355,121.080933 
	C3890.929932,166.457138 3818.460938,211.144562 3746.111572,256.019562 
	C3664.717529,306.504761 3583.331543,357.003998 3501.792236,407.253784 
	C3405.253174,466.747406 3308.583496,526.029358 3211.916260,585.314331 
	C3108.446045,648.771545 3004.976562,712.230896 2901.385742,775.490845 
	C2819.653564,825.402222 2737.782715,875.087769 2655.891113,924.737671 
	C2548.122803,990.076477 2440.554688,1055.751343 2332.396484,1120.439575 
	C2152.050781,1228.302246 1971.451050,1335.743164 1790.647217,1442.836304 
	C1728.588989,1479.594482 1665.611694,1514.801880 1603.023682,1550.663940 
	C1589.839478,1558.218384 1576.520020,1565.536743 1563.262695,1572.963745 
	C1563.439087,1573.455811 1563.615356,1573.947876 1563.791626,1574.439941 
	C2412.166992,1395.550903 3260.542236,1216.661865 4109.126465,1037.728638 
	C4109.126465,1463.029297 4109.126465,1887.528320 4109.126465,2313.228027 
	C3270.095703,2133.231445 2431.825684,1953.398071 1593.555542,1773.564819 
	C1603.264648,1781.697388 1613.646729,1788.108398 1624.018555,1794.535767 
	C1694.689209,1838.329712 1765.345703,1882.146118 1836.030029,1925.917847 
	C1910.674683,1972.141724 1985.356323,2018.305664 2060.000977,2064.529785 
	C2130.685059,2108.301758 2201.334961,2152.129395 2272.012939,2195.911621 
	C2346.932861,2242.321533 2421.867920,2288.707275 2496.796631,2335.103271 
	C2553.345703,2370.118408 2609.894287,2405.134277 2666.444824,2440.147461 
	C2741.093018,2486.365723 2815.755615,2532.561035 2890.388428,2578.804199 
	C2953.147217,2617.689697 3015.854492,2656.658691 3078.617676,2695.536865 
	C3161.453369,2746.848877 3244.325195,2798.101562 3327.174316,2849.391602 
	C3397.299072,2892.804443 3467.401367,2936.253418 3537.534912,2979.652100 
	C3626.051514,3034.425781 3714.603760,3089.142090 3803.114502,3143.925537 
	C3885.118164,3194.681396 3967.105225,3245.464355 4049.059814,3296.299805 
	C4071.941895,3310.493652 4094.682129,3324.916748 4116.532227,3339.821533 
	C4115.051758,3340.938721 4114.525879,3341.469482 4114.000000,3342.000000 
z"/>
<path fill="#000000" opacity="1.000000" stroke="none" 
	d="
M4117.487305,3339.234863 
	C4094.682129,3324.916748 4071.941895,3310.493652 4049.059814,3296.299805 
	C3967.105225,3245.464355 3885.118164,3194.681396 3803.114502,3143.925537 
	C3714.603760,3089.142090 3626.051514,3034.425781 3537.534912,2979.652100 
	C3467.401367,2936.253418 3397.299072,2892.804443 3327.174316,2849.391602 
	C3244.325195,2798.101562 3161.453369,2746.848877 3078.617676,2695.536865 
	C3015.854492,2656.658691 2953.147217,2617.689697 2890.388428,2578.804199 
	C2815.755615,2532.561035 2741.093018,2486.365723 2666.444824,2440.147461 
	C2609.894287,2405.134277 2553.345703,2370.118408 2496.796631,2335.103271 
	C2421.867920,2288.707275 2346.932861,2242.321533 2272.012939,2195.911621 
	C2201.334961,2152.129395 2130.685059,2108.301758 2060.000977,2064.529785 
	C1985.356323,2018.305664 1910.674683,1972.141724 1836.030029,1925.917847 
	C1765.345703,1882.146118 1694.689209,1838.329712 1624.018555,1794.535767 
	C1613.646729,1788.108398 1603.264648,1781.697388 1593.555542,1773.564819 
	C2431.825684,1953.398071 3270.095703,2133.231445 4109.126465,2313.228027 
	C4109.126465,1887.528320 4109.126465,1463.029297 4109.126465,1037.728638 
	C3260.542236,1216.661865 2412.166992,1395.550903 1563.791626,1574.439941 
	C1563.615356,1573.947876 1563.439087,1573.455811 1563.262695,1572.963745 
	C1576.520020,1565.536743 1589.839478,1558.218384 1603.023682,1550.663940 
	C1665.611694,1514.801880 1728.588989,1479.594482 1790.647217,1442.836304 
	C1971.451050,1335.743164 2152.050781,1228.302246 2332.396484,1120.439575 
	C2440.554688,1055.751343 2548.122803,990.076477 2655.891113,924.737671 
	C2737.782715,875.087769 2819.653564,825.402222 2901.385742,775.490845 
	C3004.976562,712.230896 3108.446045,648.771545 3211.916260,585.314331 
	C3308.583496,526.029358 3405.253174,466.747406 3501.792236,407.253784 
	C3583.331543,357.003998 3664.717529,306.504761 3746.111572,256.019562 
	C3818.460938,211.144562 3890.929932,166.457138 3962.964355,121.080933 
	C4015.306885,88.109001 4067.026855,54.148922 4119.512207,21.314741 
	C4120.000000,1127.375122 4120.000000,2232.750244 4119.663086,3339.034668 
	C4118.713379,3339.707275 4118.100586,3339.470947 4117.487305,3339.234863 
z"/>
<path fill="#000000" opacity="1.000000" stroke="none" 
	d="
M405.807434,1898.763184 
	C407.317627,1926.607422 408.915863,1954.447144 410.305267,1982.297241 
	C411.149261,1999.214478 411.767792,2016.144531 412.313385,2033.074463 
	C413.073517,2056.664062 413.674652,2080.258545 414.336517,2103.851074 
	C415.007751,2127.776855 415.626831,2151.703857 416.349792,2175.627930 
	C416.951965,2195.555176 417.499390,2215.486816 418.381622,2235.402588 
	C419.541931,2261.595459 420.516510,2287.811035 422.444458,2313.952393 
	C426.221893,2365.172119 430.678925,2416.331543 438.221771,2467.180176 
	C448.776306,2538.331543 466.175934,2607.699219 490.457642,2675.432861 
	C507.848450,2723.944580 526.470337,2771.944336 548.562988,2818.487793 
	C583.065613,2891.175293 624.151672,2959.814453 677.358459,3020.599121 
	C725.798340,3075.937988 782.209473,3121.361328 847.048767,3156.341309 
	C883.147217,3175.815918 920.876465,3191.334229 959.492554,3204.849854 
	C964.968384,3206.766602 970.885803,3207.421387 977.283325,3208.808594 
	C978.358948,3193.710205 979.276306,3179.841553 980.350342,3165.985107 
	C982.014587,3144.515625 983.860168,3123.060059 985.485413,3101.587646 
	C986.562500,3087.358398 987.287170,3073.102295 988.350891,3058.871826 
	C990.030457,3036.402832 991.960327,3013.952148 993.595337,2991.480225 
	C994.679138,2976.584473 995.268005,2961.652588 996.373474,2946.758789 
	C997.967590,2925.283691 999.937561,2903.836426 1001.540222,2882.362061 
	C1002.651794,2867.468506 1003.262878,2852.537598 1004.369934,2837.643555 
	C1005.966003,2816.168945 1007.900391,2794.719727 1009.515076,2773.246338 
	C1010.610046,2758.684814 1011.284851,2744.092285 1012.360718,2729.529053 
	C1013.996216,2707.390137 1015.896484,2685.270996 1017.530273,2663.131836 
	C1018.604919,2648.569092 1019.271729,2633.976074 1020.365356,2619.414795 
	C1022.002991,2597.609619 1023.943359,2575.827148 1025.584839,2554.022217 
	C1026.656128,2539.792480 1027.302734,2525.531006 1028.359009,2511.299805 
	C1030.002197,2489.161865 1031.906616,2467.043457 1033.555176,2444.906006 
	C1034.614868,2430.675293 1035.304565,2416.416992 1036.355713,2402.185547 
	C1038.015259,2379.715332 1039.910156,2357.262451 1041.567993,2334.792236 
	C1042.617920,2320.561035 1043.294678,2306.302246 1044.359497,2292.072266 
	C1046.016113,2269.934814 1047.963867,2247.818848 1049.588745,2225.679199 
	C1050.682007,2210.784180 1051.272827,2195.852295 1052.371704,2180.957764 
	C1053.956177,2159.481201 1055.895508,2138.031006 1057.495605,2116.555420 
	C1058.605225,2101.662354 1059.257202,2086.735596 1060.366577,2071.842529 
	C1061.966064,2050.368408 1063.882324,2028.918213 1065.495972,2007.445068 
	C1066.590210,1992.883179 1066.982056,1978.256714 1068.486206,1963.741821 
	C1069.402710,1954.896484 1065.286133,1948.964722 1059.276611,1943.987671 
	C1052.117432,1938.058105 1044.503662,1932.660278 1036.930542,1927.251221 
	C1025.831787,1919.324341 1014.576172,1911.617676 1003.431702,1903.754272 
	C1001.263733,1902.224731 999.387817,1900.282227 997.225403,1898.743530 
	C984.694885,1889.826416 983.392639,1876.911865 984.529053,1863.167358 
	C985.730530,1848.637207 987.373840,1834.135986 988.223267,1819.587158 
	C988.798279,1809.739746 988.246765,1799.830811 988.372559,1789.951538 
	C988.438232,1784.789062 986.883179,1781.038574 981.695007,1778.974731 
	C979.414246,1778.067627 977.607788,1775.968262 975.611389,1774.429810 
	C977.335327,1767.566895 982.622131,1766.932861 987.386597,1766.261963 
	C1002.798279,1764.092041 1018.265259,1762.318115 1033.697998,1760.292969 
	C1053.729126,1757.664673 1073.750000,1754.957153 1093.767700,1752.228516 
	C1095.360596,1752.011475 1096.894897,1751.364624 1099.344482,1750.663330 
	C1099.344482,1700.793823 1099.344482,1651.000854 1099.344482,1601.331543 
	C1095.921021,1599.981934 1092.417236,1598.600586 1087.466797,1596.649048 
	C1090.323120,1592.694336 1092.056885,1589.657349 1094.385498,1587.179199 
	C1104.927246,1575.959351 1118.712402,1570.000732 1132.566895,1564.274414 
	C1152.213623,1556.154053 1171.950562,1548.252441 1191.603760,1540.147461 
	C1195.896973,1538.376831 1199.992432,1536.129028 1204.190674,1534.125732 
	C1214.894043,1529.017456 1220.184692,1520.368164 1220.247070,1508.682861 
	C1220.303955,1498.035522 1219.622803,1487.382080 1219.777832,1476.738647 
	C1219.849243,1471.832764 1220.753052,1466.846436 1221.963257,1462.069824 
	C1224.146606,1453.450928 1230.328369,1447.696777 1237.712891,1443.606079 
	C1245.247192,1439.432617 1253.233521,1439.911987 1260.088989,1445.326416 
	C1272.738037,1455.316772 1277.963135,1468.731445 1276.558350,1484.665161 
	C1276.123169,1489.601196 1274.976074,1494.480835 1274.048950,1499.366089 
	C1272.337036,1508.387207 1274.663696,1516.294067 1282.215820,1521.425415 
	C1290.408203,1526.991455 1298.919678,1532.534302 1308.052368,1536.185913 
	C1335.679199,1547.232300 1361.694092,1561.121704 1386.091064,1578.037964 
	C1394.497681,1583.866943 1402.310059,1590.552856 1411.938965,1598.050415 
	C1407.044800,1599.461182 1404.144043,1600.297363 1400.790039,1601.264160 
	C1400.790039,1652.013062 1400.790039,1702.888428 1400.790039,1754.687134 
	C1437.921143,1759.840210 1474.869995,1764.968140 1511.741943,1770.085327 
	C1511.640625,1778.165161 1510.531494,1780.009277 1504.167358,1780.180908 
	C1498.584106,1780.331665 1492.972046,1779.412720 1487.275269,1778.958252 
	C1485.271362,1785.211182 1484.586548,1847.752930 1486.537842,1863.066528 
	C1495.870483,1864.287354 1505.330322,1865.524902 1515.191406,1866.814941 
	C1513.676392,1883.034790 1507.617920,1896.487427 1493.396484,1905.630981 
	C1481.651978,1913.182007 1469.881348,1920.740479 1458.620850,1928.977051 
	C1452.530273,1933.432251 1447.082886,1938.961060 1442.069824,1944.644531 
	C1436.133057,1951.375610 1434.567627,1959.575195 1435.476196,1968.608887 
	C1437.864258,1992.352173 1439.706421,2016.149658 1441.931152,2039.910156 
	C1445.174194,2074.548340 1448.597412,2109.169434 1451.877563,2143.804199 
	C1455.408447,2181.084717 1458.834717,2218.375000 1462.359497,2255.656006 
	C1464.979248,2283.363770 1467.640747,2311.067139 1470.360352,2338.765137 
	C1474.212280,2377.997559 1478.216064,2417.215332 1482.005859,2456.453857 
	C1486.211060,2499.992920 1490.191284,2543.553711 1494.377441,2587.094727 
	C1497.611450,2620.732178 1501.032104,2654.352051 1504.334229,2687.983154 
	C1509.028931,2735.794189 1513.674683,2783.610596 1518.373657,2831.421143 
	C1520.998413,2858.128418 1523.664307,2884.831543 1526.354248,2911.532227 
	C1531.003296,2957.680176 1535.622437,3003.831543 1540.373047,3049.968994 
	C1544.275269,3087.865723 1548.186401,3125.762939 1552.397583,3163.626221 
	C1556.022217,3196.214355 1560.051636,3228.757324 1563.978271,3261.311035 
	C1564.372192,3264.576660 1565.294800,3267.778564 1566.102905,3271.634521 
	C1581.864624,3272.540527 1597.396973,3273.404297 1612.925415,3274.333252 
	C1630.796143,3275.402344 1648.660645,3276.577393 1666.533691,3277.604980 
	C1673.174438,3277.987061 1679.832397,3278.056396 1686.480835,3278.314453 
	C1703.407104,3278.971436 1720.334839,3279.600098 1737.257568,3280.339844 
	C1766.777466,3281.630371 1796.293823,3283.008545 1825.812500,3284.326904 
	C1855.996582,3285.674805 1886.179321,3287.050537 1916.366943,3288.312012 
	C1949.882080,3289.712891 1983.401855,3290.997559 2016.919678,3292.334229 
	C2033.512085,3292.996338 2050.102539,3293.708496 2066.696777,3294.317139 
	C2103.880127,3295.681152 2141.065186,3296.994629 2178.249512,3298.327881 
	C2196.841797,3298.994629 2215.433105,3299.683105 2234.026367,3300.320312 
	C2254.284180,3301.014648 2274.543213,3301.665283 2294.802246,3302.326416 
	C2315.394043,3302.998535 2335.986328,3303.669189 2356.578613,3304.325195 
	C2377.837158,3305.002441 2399.095703,3305.668701 2420.354736,3306.324707 
	C2442.279785,3307.001221 2464.205078,3307.675781 2486.131104,3308.322510 
	C2509.388916,3309.008545 2532.648193,3309.661133 2555.906738,3310.328125 
	C2579.165283,3310.994873 2602.423584,3311.678711 2625.682861,3312.321777 
	C2650.607422,3313.010742 2675.532959,3313.663574 2700.458252,3314.325928 
	C2725.716797,3314.996826 2750.975098,3315.673828 2776.233887,3316.322998 
	C2802.825439,3317.006592 2829.417236,3317.670166 2856.009277,3318.324219 
	C2883.600830,3319.002930 2911.192871,3319.669434 2938.784912,3320.323975 
	C2967.376465,3321.002441 2995.968506,3321.675049 3024.560547,3322.322510 
	C3054.818604,3323.007812 3085.077393,3323.663574 3115.335693,3324.326660 
	C3145.927490,3324.996826 3176.518799,3325.683350 3207.111328,3326.320801 
	C3240.368896,3327.014160 3273.627686,3327.667969 3306.886230,3328.324707 
	C3341.144287,3329.001221 3375.402832,3329.672607 3409.661377,3330.322998 
	C3445.586182,3331.004883 3481.510986,3331.674072 3517.436279,3332.322754 
	C3555.360840,3333.006836 3593.285889,3333.680664 3631.210938,3334.321045 
	C3672.135498,3335.012451 3713.060059,3335.672852 3753.985107,3336.323242 
	C3796.909668,3337.005371 3839.835205,3337.614502 3882.757568,3338.412109 
	C3886.217041,3338.476074 3889.653564,3339.750977 3892.550293,3341.231689 
	C2595.537109,3342.000000 1299.074341,3342.000000 2.000000,3342.000000 
	C2.000000,2789.291748 2.000000,2236.583252 2.726529,1682.966309 
	C16.111036,1688.685425 28.846056,1695.170288 41.413544,1701.965088 
	C93.207115,1729.968384 144.938202,1758.087158 196.714783,1786.121704 
	C240.304352,1809.723389 283.906677,1833.301758 327.539124,1856.823975 
	C353.593079,1870.869629 379.715729,1884.787720 405.807434,1898.763184 
M1191.662354,1613.248291 
	C1191.662354,1657.378906 1191.662354,1701.509399 1191.662354,1745.713379 
	C1229.751343,1745.713379 1266.793701,1745.713379 1304.336914,1745.713379 
	C1304.336914,1743.147949 1304.336914,1741.197388 1304.336914,1739.246826 
	C1304.337158,1697.992920 1304.357422,1656.739136 1304.324829,1615.485229 
	C1304.315918,1604.139771 1302.459351,1602.353394 1290.817139,1602.342163 
	C1260.542114,1602.312866 1230.267090,1602.319092 1199.992065,1602.355957 
	C1197.432495,1602.359131 1194.873535,1602.696411 1191.662354,1602.924683 
	C1191.662354,1606.088867 1191.662354,1608.698730 1191.662354,1613.248291 
M1382.365601,1614.185547 
	C1363.025635,1610.722900 1343.685669,1607.260254 1324.326904,1603.794189 
	C1324.326904,1652.146362 1324.326904,1699.598145 1324.326904,1747.671753 
	C1347.702515,1747.015625 1370.285522,1751.158081 1393.362793,1750.020996 
	C1393.362793,1706.105347 1393.362793,1663.220703 1393.362793,1619.785278 
	C1390.241699,1618.123535 1387.057007,1616.427856 1382.365601,1614.185547 
M1173.098755,1741.160645 
	C1173.292847,1739.851685 1173.655518,1738.542725 1173.656372,1737.233643 
	C1173.686401,1693.927002 1173.688965,1650.620239 1173.651855,1607.313599 
	C1173.650635,1605.824463 1173.200928,1604.335449 1172.917480,1602.581543 
	C1150.488037,1606.583984 1128.742920,1610.464233 1106.770142,1614.385132 
	C1106.770142,1659.996704 1106.770142,1704.830566 1106.770142,1749.273560 
	C1114.767334,1748.724487 1122.301147,1748.020142 1129.850586,1747.743286 
	C1136.836914,1747.487061 1143.934692,1748.402588 1150.809448,1747.490845 
	C1157.896362,1746.550903 1164.773071,1744.028320 1173.098755,1741.160645 
M1036.308350,1840.826904 
	C1036.418823,1846.941650 1036.529175,1853.056396 1036.642944,1859.355835 
	C1053.905884,1856.763916 1069.922852,1854.295288 1085.960938,1851.972656 
	C1097.531738,1850.296753 1099.687500,1847.892822 1099.690308,1835.948730 
	C1099.695068,1815.958618 1099.691650,1795.968506 1099.691650,1775.978394 
	C1099.691650,1772.740601 1099.691650,1769.502930 1099.691650,1765.252441 
	C1077.965942,1767.957886 1057.436523,1770.514282 1036.308350,1773.145386 
	C1036.308350,1795.659424 1036.308350,1817.269043 1036.308350,1840.826904 
M1475.689819,1842.737549 
	C1475.689819,1820.857422 1475.689819,1798.977295 1475.689819,1776.567139 
	C1461.213867,1776.752319 1448.003174,1767.234985 1434.334961,1775.896118 
	C1434.334961,1801.430054 1434.334961,1826.543091 1434.334961,1851.844971 
	C1448.273071,1854.378052 1461.570801,1856.794800 1475.689819,1859.360718 
	C1475.689819,1853.875488 1475.689819,1849.255371 1475.689819,1842.737549 
M998.305176,1785.507812 
	C998.305176,1812.263306 998.305176,1839.018677 998.305176,1867.087769 
	C1009.691162,1863.574707 1019.682190,1860.492188 1029.346802,1857.510254 
	C1029.768799,1856.332886 1030.180908,1855.717041 1030.182983,1855.099854 
	C1030.265869,1831.196655 1030.390015,1807.292969 1030.307617,1783.390137 
	C1030.286133,1777.144653 1026.834473,1774.006836 1020.044739,1774.414795 
	C1012.927002,1774.842651 1005.860229,1776.119141 998.305481,1777.084106 
	C998.305481,1779.735229 998.305481,1781.686890 998.305176,1785.507812 
M1414.923462,1851.703857 
	C1417.816895,1851.554199 1420.710327,1851.404541 1423.815796,1851.243896 
	C1423.815796,1823.543823 1423.815796,1796.459106 1423.815796,1768.909668 
	C1415.981079,1767.731079 1408.635986,1766.626099 1400.825928,1765.451050 
	C1400.825928,1794.580933 1400.825928,1822.661621 1400.825928,1851.703857 
	C1405.223755,1851.703857 1409.132690,1851.703857 1414.923462,1851.703857 
z"/>
<path fill="#000000" opacity="1.000000" stroke="none" 
	d="
M4053.062744,2.000006 
	C4054.095703,2.764117 4054.339844,4.181081 4054.266113,4.197773 
	C4051.738281,4.771293 4049.188232,5.553308 4046.624756,5.615735 
	C4032.647217,5.956128 4018.662354,6.002782 4004.685547,6.361513 
	C3982.427734,6.932772 3960.174561,7.678474 3937.918945,8.335178 
	C3914.997559,9.011527 3892.076172,9.699346 3869.153564,10.327861 
	C3843.566650,11.029430 3817.978027,11.673593 3792.390137,12.335941 
	C3766.468994,13.006917 3740.548096,13.686098 3714.626465,14.331391 
	C3687.039307,15.018146 3659.451416,15.672532 3631.863770,16.335201 
	C3603.942871,17.005873 3576.021973,17.672485 3548.101074,18.335163 
	C3519.846924,19.005754 3491.593018,19.678499 3463.338623,20.333450 
	C3434.084961,21.011566 3404.830322,21.663576 3375.576660,22.337816 
	C3346.989014,22.996710 3318.402100,23.678238 3289.814453,24.333321 
	C3260.227539,25.011312 3230.640137,25.666630 3201.052979,26.337097 
	C3171.799072,27.000011 3142.545166,27.672287 3113.291260,28.335247 
	C3083.704102,29.005760 3054.116699,29.664270 3024.529785,30.338423 
	C2995.608887,30.997395 2966.688477,31.672314 2937.767822,32.335018 
	C2908.513916,33.005356 2879.260254,33.666363 2850.006348,34.336880 
	C2821.085693,34.999760 2792.164795,35.669437 2763.244141,36.336082 
	C2734.323486,37.002731 2705.402832,37.666218 2676.482178,38.336815 
	C2647.894775,38.999691 2619.307373,39.666866 2590.719971,40.337444 
	C2562.465820,41.000206 2534.211670,41.663376 2505.957764,42.337837 
	C2478.369873,42.996391 2450.782715,43.669346 2423.195068,44.336159 
	C2395.607422,45.002972 2368.019531,45.660809 2340.432129,46.339558 
	C2313.844238,46.993713 2287.256592,47.672482 2260.668945,48.335068 
	C2233.747803,49.005959 2206.826416,49.654606 2179.905762,50.342010 
	C2154.650635,50.986881 2129.396484,51.676151 2104.141602,52.333981 
	C2078.220703,53.009159 2052.298828,53.653542 2026.378174,54.341759 
	C2002.122681,54.985760 1977.868408,55.672752 1953.613403,56.334942 
	C1929.025391,57.006226 1904.436646,57.649651 1879.849243,58.343590 
	C1857.260010,58.981140 1834.672363,59.676682 1812.083618,60.333858 
	C1788.828857,61.010410 1765.572754,61.642708 1742.318848,62.347893 
	C1721.728760,62.972298 1701.141357,63.686260 1680.551880,64.331383 
	C1658.630615,65.018234 1636.707031,65.635994 1614.786621,66.348633 
	C1595.862305,66.963867 1576.941650,67.682831 1558.018433,68.332245 
	C1538.096558,69.015945 1518.172607,69.637962 1498.251831,70.349617 
	C1480.993896,70.966156 1463.735352,71.586296 1446.483765,72.355179 
	C1418.965576,73.581635 1391.455933,75.002930 1363.936768,76.207069 
	C1345.020996,77.034744 1326.088379,77.492348 1307.175415,78.374100 
	C1286.635620,79.331688 1266.061523,80.038956 1245.588745,81.837746 
	C1210.278809,84.940170 1174.911133,87.875259 1139.798584,92.597679 
	C1102.005249,97.680649 1064.705566,105.759346 1027.826294,115.697632 
	C977.313477,129.309952 928.436646,147.311295 881.588074,170.509415 
	C831.934875,195.096268 785.810059,225.263062 743.474792,261.098480 
	C681.940979,313.184753 631.579773,374.693542 590.391541,443.781891 
	C557.444641,499.046387 531.057922,557.386292 509.511047,618.015442 
	C482.867035,692.987000 463.508423,769.834351 449.933929,848.118347 
	C442.861816,888.903015 437.073669,929.938477 431.841431,971.005371 
	C427.572723,1004.509521 424.640778,1038.198853 421.782440,1071.862671 
	C419.818604,1094.991333 418.711914,1118.204956 417.740509,1141.402344 
	C416.725433,1165.643066 416.307037,1189.909180 415.671753,1214.165283 
	C414.975403,1240.752319 414.432404,1267.343750 413.619019,1293.927002 
	C413.192719,1307.858154 412.545990,1321.790405 411.623413,1335.697144 
	C409.211426,1372.054932 407.427551,1408.480225 400.528748,1445.815918 
	C395.102234,1453.407959 391.186859,1460.886353 385.129883,1465.630737 
	C369.459595,1477.905151 353.471832,1490.004272 336.492584,1500.335571 
	C279.850769,1534.799927 219.653076,1562.465820 159.831680,1590.791260 
	C118.665550,1610.283325 77.355415,1629.471558 36.073925,1648.719116 
	C24.199232,1654.255493 11.832750,1658.875000 2.000000,1668.000000 
	C2.000000,1112.751465 2.000000,557.502930 2.000000,2.000000 
	C1352.041870,2.000000 2702.083740,2.000000 4053.062744,2.000006 
z"/>
<path fill="#BF3922" opacity="1.000000" stroke="none" 
	d="
M2.000000,1668.875000 
	C11.832750,1658.875000 24.199232,1654.255493 36.073925,1648.719116 
	C77.355415,1629.471558 118.665550,1610.283325 159.831680,1590.791260 
	C219.653076,1562.465820 279.850769,1534.799927 336.492584,1500.335571 
	C353.471832,1490.004272 369.459595,1477.905151 385.129883,1465.630737 
	C391.186859,1460.886353 395.102234,1453.407959 400.346313,1446.693115 
	C401.024139,1448.813965 401.615662,1451.414917 401.633911,1454.019897 
	C401.906799,1493.006958 401.987915,1531.995605 402.345642,1570.981689 
	C402.914093,1632.942627 403.634399,1694.902466 404.329956,1756.862183 
	C404.853424,1803.494629 405.438812,1850.126343 405.902039,1897.760742 
	C379.715729,1884.787720 353.593079,1870.869629 327.539124,1856.823975 
	C283.906677,1833.301758 240.304352,1809.723389 196.714783,1786.121704 
	C144.938202,1758.087158 93.207115,1729.968384 41.413544,1701.965088 
	C28.846056,1695.170288 16.111036,1688.685425 2.726529,1682.029053 
	C2.000000,1677.916626 2.000000,1673.833374 2.000000,1668.875000 
z"/>
<path fill="#000000" opacity="1.000000" stroke="none" 
	d="
M4120.000000,9.000000 
	C4114.853027,10.740431 4114.233398,5.588850 4111.682617,2.682149 
	C4114.488770,2.000000 4116.978027,2.000000 4120.000000,2.000000 
	C4120.000000,3.989345 4120.000000,5.994673 4120.000000,9.000000 
z"/>
<path fill="#B2B2B2" opacity="1.000000" stroke="none" 
	d="
M4116.532227,3339.821289 
	C4118.100586,3339.470947 4118.713379,3339.707275 4119.663086,3339.971680 
	C4120.305176,3343.944092 4117.254883,3341.176270 4115.000000,3342.000000 
	C4114.525879,3341.469482 4115.051758,3340.938721 4116.532227,3339.821289 
z"/>
<path fill="#EAEAEA" opacity="1.000000" stroke="none" 
	d="
M1191.662354,1612.278320 
	C1191.662354,1608.698730 1191.662354,1606.088867 1191.662354,1602.924683 
	C1194.873535,1602.696411 1197.432495,1602.359131 1199.992065,1602.355957 
	C1230.267090,1602.319092 1260.542114,1602.312866 1290.817139,1602.342163 
	C1302.459351,1602.353394 1304.315918,1604.139771 1304.324829,1615.485229 
	C1304.357422,1656.739136 1304.337158,1697.992920 1304.336914,1739.246826 
	C1304.336914,1741.197388 1304.336914,1743.147949 1304.336914,1745.713379 
	C1266.793701,1745.713379 1229.751343,1745.713379 1191.662354,1745.713379 
	C1191.662354,1701.509399 1191.662354,1657.378906 1191.662354,1612.278320 
z"/>
<path fill="#E9E9E9" opacity="1.000000" stroke="none" 
	d="
M1383.118896,1614.458984 
	C1387.057007,1616.427856 1390.241699,1618.123535 1393.362793,1619.785278 
	C1393.362793,1663.220703 1393.362793,1706.105347 1393.362793,1750.020996 
	C1370.285522,1751.158081 1347.702515,1747.015625 1324.326904,1747.671753 
	C1324.326904,1699.598145 1324.326904,1652.146362 1324.326904,1603.794189 
	C1343.685669,1607.260254 1363.025635,1610.722900 1383.118896,1614.458984 
z"/>
<path fill="#E6E6E6" opacity="1.000000" stroke="none" 
	d="
M1172.420288,1741.679443 
	C1164.773071,1744.028320 1157.896362,1746.550903 1150.809448,1747.490845 
	C1143.934692,1748.402588 1136.836914,1747.487061 1129.850586,1747.743286 
	C1122.301147,1748.020142 1114.767334,1748.724487 1106.770142,1749.273560 
	C1106.770142,1704.830566 1106.770142,1659.996704 1106.770142,1614.385132 
	C1128.742920,1610.464233 1150.488037,1606.583984 1172.917480,1602.581543 
	C1173.200928,1604.335449 1173.650635,1605.824463 1173.651855,1607.313599 
	C1173.688965,1650.620239 1173.686401,1693.927002 1173.656372,1737.233643 
	C1173.655518,1738.542725 1173.292847,1739.851685 1172.420288,1741.679443 
z"/>
<path fill="#E6E6E6" opacity="1.000000" stroke="none" 
	d="
M1036.308350,1839.852783 
	C1036.308350,1817.269043 1036.308350,1795.659424 1036.308350,1773.145386 
	C1057.436523,1770.514282 1077.965942,1767.957886 1099.691650,1765.252441 
	C1099.691650,1769.502930 1099.691650,1772.740601 1099.691650,1775.978394 
	C1099.691650,1795.968506 1099.695068,1815.958618 1099.690308,1835.948730 
	C1099.687500,1847.892822 1097.531738,1850.296753 1085.960938,1851.972656 
	C1069.922852,1854.295288 1053.905884,1856.763916 1036.642944,1859.355835 
	C1036.529175,1853.056396 1036.418823,1846.941650 1036.308350,1839.852783 
z"/>
<path fill="#E6E6E6" opacity="1.000000" stroke="none" 
	d="
M1475.689819,1843.686401 
	C1475.689819,1849.255371 1475.689819,1853.875488 1475.689819,1859.360718 
	C1461.570801,1856.794800 1448.273071,1854.378052 1434.334961,1851.844971 
	C1434.334961,1826.543091 1434.334961,1801.430054 1434.334961,1775.896118 
	C1448.003174,1767.234985 1461.213867,1776.752319 1475.689819,1776.567139 
	C1475.689819,1798.977295 1475.689819,1820.857422 1475.689819,1843.686401 
z"/>
<path fill="#E5E5E5" opacity="1.000000" stroke="none" 
	d="
M998.305298,1784.573120 
	C998.305481,1781.686890 998.305481,1779.735229 998.305481,1777.084106 
	C1005.860229,1776.119141 1012.927002,1774.842651 1020.044739,1774.414795 
	C1026.834473,1774.006836 1030.286133,1777.144653 1030.307617,1783.390137 
	C1030.390015,1807.292969 1030.265869,1831.196655 1030.182983,1855.099854 
	C1030.180908,1855.717041 1029.768799,1856.332886 1029.346802,1857.510254 
	C1019.682190,1860.492188 1009.691162,1863.574707 998.305176,1867.087769 
	C998.305176,1839.018677 998.305176,1812.263306 998.305298,1784.573120 
z"/>
<path fill="#E4E4E4" opacity="1.000000" stroke="none" 
	d="
M1413.982666,1851.703857 
	C1409.132690,1851.703857 1405.223755,1851.703857 1400.825928,1851.703857 
	C1400.825928,1822.661621 1400.825928,1794.580933 1400.825928,1765.451050 
	C1408.635986,1766.626099 1415.981079,1767.731079 1423.815796,1768.909668 
	C1423.815796,1796.459106 1423.815796,1823.543823 1423.815796,1851.243896 
	C1420.710327,1851.404541 1417.816895,1851.554199 1413.982666,1851.703857 
z"/>
</svg>