<?xml version="1.0" encoding="UTF-8"?>
<svg version="1.1" xmlns="http://www.w3.org/2000/svg" width="1000" height="1000">
<path d="M0 0 C1.22714218 -0.00701431 2.45428436 -0.01402863 3.71861267 -0.02125549 C7.66008169 -0.03867062 11.60146945 -0.04569002 15.54296875 -0.046875 C16.21485733 -0.04731686 16.88674591 -0.04775871 17.57899475 -0.04821396 C38.13014115 -0.0553013 58.3492818 0.33233805 78.73046875 3.203125 C80.01518066 3.37473145 81.29989258 3.54633789 82.62353516 3.72314453 C138.11168631 11.18367598 190.68671173 28.25140515 240.73046875 53.203125 C241.64425293 53.65800293 242.55803711 54.11288086 243.49951172 54.58154297 C263.47010985 64.59794889 282.59142014 76.15931476 300.73046875 89.203125 C301.49343262 89.7496875 302.25639648 90.29625 303.04248047 90.859375 C312.25471406 97.48257364 321.25062254 104.25242016 329.8203125 111.69140625 C332.59977646 114.09032615 335.43137178 116.40326399 338.29296875 118.703125 C346.18231038 125.13916685 354.00387286 131.79463447 360.4375 139.71875 C362.6047136 142.20678978 365.16710927 144.13062159 367.73046875 146.203125 C369.41980797 147.8468064 371.08306799 149.5174126 372.73046875 151.203125 C373.41238281 151.87472656 374.09429688 152.54632813 374.796875 153.23828125 C379.67610108 158.05146028 384.29385883 162.9819926 388.73046875 168.203125 C389.5296875 169.12480469 390.32890625 170.04648438 391.15234375 170.99609375 C398.24069982 179.21561211 404.845719 187.76557959 411.37451172 196.43359375 C412.50172857 197.90461782 413.67509299 199.3401406 414.859375 200.765625 C416.66339244 203.11574375 418.07759624 205.53622657 419.51123047 208.12304688 C422.20179228 212.71327247 425.30756436 217.05171992 428.29296875 221.453125 C440.09262452 239.03141581 450.18939376 257.31375701 459.73046875 276.203125 C460.16746094 277.06631348 460.60445312 277.92950195 461.0546875 278.81884766 C488.89178734 334.26820923 509.37332872 402.77424781 508.79296875 465.453125 C508.77943359 467.37898437 508.77943359 467.37898437 508.765625 469.34375 C508.74822266 470.75914062 508.74822266 470.75914062 508.73046875 472.203125 C509.39046875 472.203125 510.05046875 472.203125 510.73046875 472.203125 C510.73046875 475.503125 510.73046875 478.803125 510.73046875 482.203125 C510.07046875 482.203125 509.41046875 482.203125 508.73046875 482.203125 C508.76076172 482.76483398 508.79105469 483.32654297 508.82226562 483.90527344 C509.17898693 490.66925817 509.47639517 497.43451573 509.73046875 504.203125 C509.76205078 505.02458008 509.79363281 505.84603516 509.82617188 506.69238281 C511.98788593 571.95951876 492.50382851 640.48119643 465.73046875 699.203125 C465.3324707 700.08419922 464.93447266 700.96527344 464.52441406 701.87304688 C458.06027633 716.11426759 450.64809971 729.72135622 442.73046875 743.203125 C442.25464355 744.01410645 441.77881836 744.82508789 441.28857422 745.66064453 C426.93036196 769.97524412 410.32125346 792.94755665 391.73046875 814.203125 C391.10011719 814.93273437 390.46976563 815.66234375 389.8203125 816.4140625 C388.13622179 818.35517845 386.43423463 820.27927355 384.73046875 822.203125 C383.97636719 823.07324219 383.22226562 823.94335938 382.4453125 824.83984375 C381.65253906 825.74347656 380.85976563 826.64710938 380.04296875 827.578125 C379.31722656 828.41085937 378.59148438 829.24359375 377.84375 830.1015625 C375.73046875 832.203125 375.73046875 832.203125 373.8515625 833.12109375 C370.50287549 834.82935581 368.11283441 837.49251553 365.48046875 840.140625 C364.64902344 840.94790039 364.64902344 840.94790039 363.80078125 841.77148438 C362.38163636 843.18888154 361.04905371 844.69172808 359.73046875 846.203125 C359.73046875 847.193125 359.73046875 848.183125 359.73046875 849.203125 C358.3671875 850.67578125 358.3671875 850.67578125 356.41796875 852.265625 C353.00112094 855.12302413 349.68995626 858.05529745 346.41796875 861.078125 C341.01549355 865.99889802 335.42809294 870.6301299 329.73046875 875.203125 C328.59848089 876.12701949 327.46699388 877.0515279 326.3359375 877.9765625 C316.74720879 885.78134169 306.85393388 893.10745424 296.73046875 900.203125 C295.7878418 900.86393066 295.7878418 900.86393066 294.82617188 901.53808594 C259.83416174 925.87292035 220.95116076 945.21452344 180.73046875 959.203125 C180.09475952 959.42686798 179.45905029 959.65061096 178.80407715 959.88113403 C166.97004401 964.0282436 155.04718726 967.34890618 142.85546875 970.265625 C141.96384033 970.48067688 141.07221191 970.69572876 140.15356445 970.91729736 C113.91174601 977.22886484 87.56560579 981.41677526 60.73046875 984.203125 C59.25054443 984.36107544 59.25054443 984.36107544 57.74072266 984.5222168 C23.30711088 987.69757647 -12.05500508 985.71301061 -46.26953125 981.203125 C-47.10659607 981.09421936 -47.94366089 980.98531372 -48.80609131 980.87310791 C-61.33620103 979.23506626 -73.81739238 977.3555134 -86.26953125 975.203125 C-87.00067139 975.07677673 -87.73181152 974.95042847 -88.48510742 974.82025146 C-152.54768822 963.61455561 -214.59071909 934.8897948 -267.26953125 897.203125 C-268.01412598 896.67106445 -268.7587207 896.13900391 -269.52587891 895.59082031 C-284.61655117 884.7550486 -299.07704238 873.28194705 -312.67578125 860.6171875 C-319.17258232 854.5360088 -319.17258232 854.5360088 -326.26953125 849.203125 C-326.62270161 847.87490831 -326.95484341 846.54098166 -327.26953125 845.203125 C-328.49519278 843.53691132 -328.49519278 843.53691132 -330.0703125 842.0390625 C-330.63556641 841.47445312 -331.20082031 840.90984375 -331.78320312 840.328125 C-332.67362305 839.461875 -332.67362305 839.461875 -333.58203125 838.578125 C-334.45504883 837.70027344 -334.45504883 837.70027344 -335.34570312 836.8046875 C-338.52599082 833.60043148 -338.52599082 833.60043148 -342.30078125 831.18774414 C-345.48453777 829.59547107 -347.6096341 826.87792982 -349.95703125 824.265625 C-350.75367188 823.38946533 -350.75367188 823.38946533 -351.56640625 822.49560547 C-356.32873491 817.21831417 -360.83656911 811.75920339 -365.26953125 806.203125 C-366.1904431 805.07343292 -367.11237236 803.94456968 -368.03515625 802.81640625 C-404.04546667 758.60212195 -431.65191999 708.03531651 -450.26953125 654.203125 C-450.62354004 653.1836377 -450.97754883 652.16415039 -451.34228516 651.11376953 C-464.03065867 614.14421949 -471.25751483 576.01723315 -475.26953125 537.203125 C-475.37483154 536.2143335 -475.48013184 535.22554199 -475.58862305 534.20678711 C-476.65105671 522.68096254 -476.55524657 511.08047389 -476.58203125 499.515625 C-476.58531433 498.35526733 -476.58859741 497.19490967 -476.59197998 495.99938965 C-476.61169924 474.30448074 -475.1339318 452.9782855 -472.53820801 431.4519043 C-472.25903958 429.11531148 -471.99107698 426.77763738 -471.72558594 424.43945312 C-471.5502164 422.90754221 -471.37476388 421.3756408 -471.19921875 419.84375 C-471.12043488 419.14683044 -471.041651 418.44991089 -470.96047974 417.73187256 C-470.33293465 412.33879014 -469.27137408 407.1493442 -468.06332397 401.8603363 C-467.41767052 399.03313332 -466.7835549 396.20336485 -466.1484375 393.3737793 C-465.8119414 391.88253424 -465.47241176 390.39197053 -465.12988281 388.90209961 C-464.63417235 386.74252413 -464.15002663 384.58062699 -463.66796875 382.41796875 C-463.51282806 381.75433823 -463.35768738 381.0907077 -463.19784546 380.40696716 C-462.459057 377.04059985 -462.02873287 374.47530527 -463.26953125 371.203125 C-462.27953125 370.873125 -461.28953125 370.543125 -460.26953125 370.203125 C-460.12149048 369.3519812 -460.12149048 369.3519812 -459.97045898 368.48364258 C-458.60210778 361.11746212 -456.56145686 354.03827216 -454.33203125 346.890625 C-454.13734253 346.26640656 -453.94265381 345.64218811 -453.74206543 344.99905396 C-438.67502503 296.93058426 -416.41182848 250.41221265 -386.671875 209.62890625 C-384.67318574 206.86284906 -383.02891431 203.98103132 -381.36865234 200.99804688 C-379.26761803 197.56694863 -376.6534828 194.53773985 -374.08203125 191.453125 C-373.50541748 190.75356689 -372.92880371 190.05400879 -372.3347168 189.33325195 C-371.17942298 187.93174006 -370.02231837 186.53171858 -368.86328125 185.13330078 C-366.74711175 182.57042761 -364.66733512 179.97863605 -362.58203125 177.390625 C-358.74090245 172.69669512 -354.70529712 168.20784894 -350.59375 163.75 C-348.65693148 161.62763752 -346.8002166 159.46834527 -344.95703125 157.265625 C-341.36577126 153.11534812 -337.31397772 149.5217199 -333.25 145.84716797 C-329.60261342 142.51945177 -326.24020418 139.07912792 -322.95703125 135.390625 C-318.97826453 130.92245726 -314.84113193 127.04537491 -310.26953125 123.203125 C-309.14259324 122.21705424 -308.01779117 121.22853979 -306.89453125 120.23828125 C-298.92106638 113.22271501 -290.81896707 106.51260405 -282.26953125 100.203125 C-281.58487793 99.6978125 -280.90022461 99.1925 -280.19482422 98.671875 C-253.92866785 79.36244969 -226.44330228 62.79491038 -197.26953125 48.203125 C-196.12822754 47.62256348 -196.12822754 47.62256348 -194.96386719 47.03027344 C-136.1181495 17.16528729 -66.04087302 0.25381214 0 0 Z " fill="#1B1B1B" transform="translate(483.26953125,7.796875)"/>
<path d="M0 0 C41.58 0 83.16 0 126 0 C130.5951469 24.12452121 130.5951469 24.12452121 132.31835938 34.56958008 C132.51734329 35.7630455 132.71632721 36.95651093 132.92134094 38.18614197 C133.45411143 41.38446545 133.98475639 44.58313174 134.51436043 47.78198075 C135.07787323 51.18224063 135.6442748 54.58201944 136.21032715 57.9818573 C137.2804967 64.4121136 138.34819628 70.84277731 139.41494322 77.27360219 C140.61549181 84.5103274 141.81876543 91.74659862 143.02229977 98.98282778 C144.70643136 109.10880526 146.38956535 119.23494735 148.07056427 129.36144543 C148.67283353 132.98918718 149.2754732 136.61686725 149.87817383 140.24453735 C150.57992351 144.46857182 151.28029664 148.69282956 151.97924805 152.91732788 C153.91504069 164.59817718 155.899383 176.27027195 157.90551758 187.93920898 C160.70517111 204.22530191 163.44267266 220.52121925 166.15393806 236.82223439 C166.77248757 240.53999337 167.39202116 244.25758839 168.01142883 247.97520447 C169.1770403 254.97193049 170.3418297 261.96879309 171.50628835 268.96571106 C172.82410258 276.88385165 174.1428576 284.80183546 175.4616884 292.71980679 C177.30363071 303.77849078 179.1452586 314.83722704 180.98611736 325.89609146 C181.41776862 328.48920401 181.84949907 331.08230334 182.28127003 333.67539597 C183.15086434 338.8979709 184.02027152 344.12057517 184.88745117 349.34355164 C186.3536583 358.1695196 187.84833383 366.99024589 189.36829758 375.80713844 C192.61770238 394.66859487 195.80848784 413.53989835 198.96824265 432.41656685 C199.75868652 437.13863029 200.55117201 441.86033245 201.34814453 446.58129883 C202.13742529 451.25691714 202.92196255 455.93330797 203.70308304 460.61029625 C203.99725225 462.36679613 204.2930761 464.12301979 204.59064865 465.8789463 C205.00168232 468.30633586 205.40659757 470.73467206 205.81005859 473.16333008 C205.93154266 473.87223389 206.05302673 474.5811377 206.17819214 475.31152344 C206.82508755 479.25035591 207.11821703 483.00989641 207 487 C177.37909839 495.31163134 147.64707435 501.75433252 117 505 C116.18478882 505.08687073 115.36957764 505.17374146 114.52966309 505.26324463 C99.21754099 506.85055804 84.01445989 507.40288686 68.625 507.375 C67.48036285 507.37445618 66.33572571 507.37391235 65.15640259 507.37335205 C43.23397804 507.32594729 21.724525 505.8635534 0 503 C-0.83706482 502.89109436 -1.67412964 502.78218872 -2.53656006 502.66998291 C-28.53544989 499.27118871 -54.76607037 495.27505415 -80 488 C-78.7747494 477.64813727 -77.31969309 467.36925787 -75.57421875 457.08984375 C-75.34211478 455.70729312 -75.11033745 454.32468761 -74.87886047 452.94203186 C-74.27373423 449.33194397 -73.6648653 445.7224986 -73.05493164 442.11322021 C-72.08956417 436.39686569 -71.13016012 430.67950737 -70.17051125 424.96219063 C-69.84558668 423.02944631 -69.51900488 421.0969808 -69.19230652 419.16453552 C-67.68720036 410.22549273 -66.23821748 401.27812528 -64.80126953 392.32788086 C-61.57234365 372.23129011 -58.2268451 352.1540163 -54.8908937 332.07497072 C-53.97584836 326.56614135 -53.06173252 321.05715775 -52.14753723 315.54818726 C-49.82835586 301.5736535 -47.50797057 287.59931974 -45.1875 273.625 C-42.68991263 258.58386673 -40.19259781 243.54268835 -37.69647676 228.50131166 C-36.79460963 223.06694588 -35.89248784 217.63262269 -34.98967552 212.19841385 C-30.89199124 187.53329585 -26.82579337 162.86334208 -22.80342388 138.18582439 C-20.17095003 122.035775 -17.51567493 105.88966634 -14.84375 89.74609375 C-14.45470765 87.39327729 -14.06571073 85.04045332 -13.67675781 82.68762207 C-12.2850463 74.27082523 -10.89247947 65.85416983 -9.5 57.4375 C-4.7975 29.0059375 -4.7975 29.0059375 0 0 Z " fill="#C13A21" transform="translate(437,486)"/>
<path d="M0 0 C1.8515625 1.90625 1.8515625 1.90625 3.625 4.5 C4.65560547 6.00046875 4.65560547 6.00046875 5.70703125 7.53125 C6.47269395 8.68661324 7.23694347 9.84291387 8 11 C8.41556152 11.62003906 8.83112305 12.24007812 9.25927734 12.87890625 C21.50564005 31.17796437 32.07829157 50.35705602 42 70 C42.43699219 70.86318848 42.87398437 71.72637695 43.32421875 72.61572266 C71.16131859 128.06508423 91.64285997 196.57112281 91.0625 259.25 C91.04896484 261.17585937 91.04896484 261.17585937 91.03515625 263.140625 C91.01775391 264.55601562 91.01775391 264.55601562 91 266 C82.46968427 263.66202248 74.22797567 260.58833816 65.95117188 257.49414062 C63.63824506 256.62994882 61.32319568 255.77164821 59.0078125 254.9140625 C34.38258953 245.76517906 34.38258953 245.76517906 33 243 C31.59621094 243.11214844 31.59621094 243.11214844 30.1640625 243.2265625 C24.87767825 243.21861305 20.2663575 241.2062715 15.375 239.375 C5.09071787 235.65476698 -5.26390943 232.5349476 -15.79931641 229.61865234 C-18.65312388 228.81639495 -21.48356541 227.94817701 -24.3125 227.0625 C-26.541211 226.37352426 -28.77043521 225.68620778 -31 225 C-31.70012207 224.78327637 -32.40024414 224.56655273 -33.12158203 224.34326172 C-80.60919438 209.75672409 -129.24379505 199.36342978 -178.0687561 190.45777893 C-182.11100062 189.72021257 -186.1509577 188.97805046 -190.18139648 188.17822266 C-201.58017311 185.93900859 -213.04173911 184.45681145 -224.5625 183 C-226.51112292 182.75043068 -228.45969091 182.50043216 -230.40820312 182.25 C-233.3338931 181.87411928 -236.25969199 181.49926599 -239.18597412 181.12802124 C-244.09897719 180.50446152 -249.00952498 179.86748978 -253.91699219 179.20166016 C-265.97147499 177.57327667 -277.99617493 176.28783866 -290.125 175.375 C-292.48707942 175.19378611 -294.84898838 175.01079076 -297.21066284 174.82437134 C-298.65175602 174.71091416 -300.09309172 174.60047733 -301.53469849 174.4937439 C-305.09544883 174.21652717 -308.50772324 173.73292159 -312 173 C-312.02312269 161.80426756 -312.04091471 150.60854076 -312.05181217 139.41278934 C-312.05704116 134.21471885 -312.0641391 129.01666464 -312.07543945 123.81860352 C-312.08626776 118.80657732 -312.09227671 113.79456682 -312.09487724 108.78252983 C-312.09673159 106.86587718 -312.1003524 104.94922543 -312.10573006 103.03257942 C-312.11293975 100.35771928 -312.11399097 97.68292486 -312.11352539 95.00805664 C-312.11712067 94.2074884 -312.12071594 93.40692017 -312.12442017 92.58209229 C-312.11405216 87.11405216 -312.11405216 87.11405216 -311 86 C-308.81030043 85.64565341 -306.61137261 85.34806591 -304.41015625 85.07421875 C-303.02874506 84.89812139 -301.64739915 84.72151125 -300.26611328 84.54443359 C-299.55529602 84.45434021 -298.84447876 84.36424683 -298.11212158 84.27142334 C-279.30314186 81.85432949 -260.58697348 78.86398632 -241.9375 75.4375 C-241.16010468 75.29583405 -240.38270935 75.15416809 -239.58175659 75.00820923 C-230.60123875 73.36472122 -221.69225687 71.55510017 -212.8344574 69.33531189 C-209.49014146 68.51244444 -206.20054284 67.86282908 -202.78295898 67.47338867 C-199.76940852 67.09628158 -197.40184909 66.63219556 -194.59375 65.578125 C-189.95835732 63.941871 -185.29135015 62.82760072 -180.5 61.75 C-156.64015842 56.17641897 -133.49252939 48.71755421 -110.33129883 40.79492188 C-108.05002181 40.01705634 -105.76666247 39.24567712 -103.48242188 38.4765625 C-72.12514349 27.90709512 -40.69613592 16.27372439 -11.02172852 1.55200195 C-3.97608901 -1.8498382 -3.97608901 -1.8498382 0 0 Z " fill="#EAE9E9" transform="translate(901,214)"/>
<path d="M0 0 C3.5195557 0.56794316 6.16696294 1.44566439 9.24609375 3.23046875 C10.47779297 3.92946289 10.47779297 3.92946289 11.734375 4.64257812 C13.07242188 5.40731445 13.07242188 5.40731445 14.4375 6.1875 C53.73543266 28.06387951 96.88693133 44.36629497 140 57 C140.92441895 57.27118652 141.84883789 57.54237305 142.80126953 57.82177734 C157.44138351 62.08222833 172.1690847 65.86542412 187.02148438 69.30908203 C189.86495399 69.96867375 192.70599069 70.63797042 195.546875 71.30859375 C216.05098164 76.10833445 236.6970781 79.88861696 257.5 83.125 C258.27769745 83.24728973 259.0553949 83.36957947 259.85665894 83.49557495 C274.20703099 85.74091767 288.55158818 87.33287556 303 89 C303 116.72 303 144.44 303 173 C294.09 173.66 285.18 174.32 276 175 C269.98147997 175.56006584 263.97028243 176.12125149 257.9597168 176.75 C255.50690748 177.00579761 253.05333451 177.25315703 250.59960938 177.5 C248.98432457 177.66617725 247.36908813 177.83282536 245.75390625 178 C244.694244 178.10634766 244.694244 178.10634766 243.61317444 178.21484375 C239.43387473 178.658118 235.31025877 179.26832429 231.16772461 179.97949219 C225.31636621 180.97835342 219.46096299 181.6773061 213.5625 182.328125 C199.29068364 183.97916242 185.15656957 186.31841552 171 188.75 C169.07356659 189.07798584 169.07356659 189.07798584 167.10821533 189.41259766 C146.38715098 192.94572838 125.79034382 196.81709331 105.32519531 201.62890625 C101.76273613 202.45423094 98.67747719 203 95 203 C94.67 202.34 94.34 201.68 94 201 C93.01 200.67 92.02 200.34 91 200 C91 201.65 91 203.3 91 205 C90.05084717 205.2333606 90.05084717 205.2333606 89.08251953 205.47143555 C76.46196414 208.58149283 63.867406 211.74132047 51.37158203 215.32275391 C48.82178397 216.05089266 46.2683024 216.76527984 43.71484375 217.48046875 C28.33795506 221.83281811 13.20730481 226.83699183 -1.92575073 231.95866394 C-6.29185718 233.43351943 -10.66802474 234.87225875 -15.0546875 236.28515625 C-39.32608264 244.13256518 -64.57180266 252.91988628 -87.04443359 265.10888672 C-89 266 -89 266 -92 266 C-92.22655101 257.21485545 -91.52213509 248.60744999 -90.625 239.875 C-90.48687157 238.49498146 -90.34901534 237.11493565 -90.21142578 235.73486328 C-87.45940008 208.32760337 -87.45940008 208.32760337 -84.79379272 196.6572113 C-84.14813927 193.83000832 -83.51402365 191.00023985 -82.87890625 188.1706543 C-82.54241015 186.67940924 -82.20288051 185.18884553 -81.86035156 183.69897461 C-81.3646411 181.53939913 -80.88049538 179.37750199 -80.3984375 177.21484375 C-80.24329681 176.55121323 -80.08815613 175.8875827 -79.92831421 175.20384216 C-79.18952575 171.83747485 -78.75920162 169.27218027 -80 166 C-79.01 165.67 -78.02 165.34 -77 165 C-76.90130615 164.4325708 -76.8026123 163.8651416 -76.70092773 163.28051758 C-75.33257653 155.91433712 -73.29192561 148.83514716 -71.0625 141.6875 C-70.86781128 141.06328156 -70.67312256 140.43906311 -70.47253418 139.79592896 C-54.89772642 90.107526 -31.69950641 41.51621733 0 0 Z " fill="#EAEAEA" transform="translate(100,213)"/>
<path d="M0 0 C3.87003705 2.17313255 7.38488216 4.7247264 10.94921875 7.36328125 C12.56632705 8.54568124 14.18351683 9.72796981 15.80078125 10.91015625 C17.03683105 11.81797852 17.03683105 11.81797852 18.29785156 12.74414062 C22.12697553 15.55186133 25.97472653 18.33358341 29.82421875 21.11328125 C30.56824951 21.65122314 31.31228027 22.18916504 32.07885742 22.7434082 C37.11614542 26.37990038 42.1804238 29.97610144 47.26171875 33.55078125 C55.38956209 39.26870116 63.44837919 45.0790222 71.49560547 50.90966797 C75.99061059 54.16493886 80.49136008 57.41226534 84.99169922 60.66015625 C88.85747953 63.45074794 92.72020268 66.24542748 96.578125 69.046875 C97.37283203 69.62308594 98.16753906 70.19929688 98.98632812 70.79296875 C100.48733841 71.88142065 101.98742046 72.9711544 103.48632812 74.0625 C108.50358256 77.69778426 113.59651871 81.10731455 118.76171875 84.55078125 C118.76171875 95.11078125 118.76171875 105.67078125 118.76171875 116.55078125 C39.56171875 116.55078125 -39.63828125 116.55078125 -121.23828125 116.55078125 C-121.23828125 106.32078125 -121.23828125 96.09078125 -121.23828125 85.55078125 C-115.28740121 80.79007721 -109.47582657 76.18064105 -103.23828125 71.86328125 C-101.75848977 70.82901839 -100.27934471 69.79383015 -98.80078125 68.7578125 C-98.04925781 68.2313916 -97.29773438 67.7049707 -96.5234375 67.16259766 C-92.737455 64.49218564 -88.98846375 61.7711272 -85.23828125 59.05078125 C-79.4328546 54.84359706 -73.60305909 50.67482503 -67.73828125 46.55078125 C-58.84751553 40.29645249 -50.03995124 33.92962595 -41.23828125 27.55078125 C-31.43877857 20.44877609 -21.62303299 13.37483173 -11.71850586 6.41967773 C-11.05729736 5.95505127 -10.39608887 5.4904248 -9.71484375 5.01171875 C-9.1002832 4.58600586 -8.48572266 4.16029297 -7.85253906 3.72167969 C-6.09058191 2.48817502 -6.09058191 2.48817502 -4.07421875 0.58984375 C-2.23828125 -0.44921875 -2.23828125 -0.44921875 0 0 Z " fill="#C13A21" transform="translate(501.23828125,155.44921875)"/>
<path d="M0 0 C0 27.06 0 54.12 0 82 C-9.61001519 82 -19.08976083 81.92599586 -28.66796875 81.50390625 C-48.21281498 80.74437095 -67.76505294 80.88662057 -87.32116699 80.93133545 C-93.27395723 80.94360298 -99.22675841 80.94799631 -105.1795578 80.95378876 C-114.11972704 80.96333003 -123.05982704 80.98255009 -132 81 C-132 54.93 -132 28.86 -132 2 C-122.00138672 2.03480469 -122.00138672 2.03480469 -111.80078125 2.0703125 C-107.51236576 2.08056253 -103.22396593 2.09019255 -98.93554688 2.09765625 C-92.1672034 2.10949304 -85.39891531 2.12330693 -78.63061523 2.15087891 C-43.54563385 2.33457288 -43.54563385 2.33457288 -8.54484558 0.18161011 C-5.7031474 -0.02118456 -2.8489251 0 0 0 Z " fill="#EAEAEA" transform="translate(566,303)"/>
<path d="M0 0 C1.37302643 0.00436926 1.37302643 0.00436926 2.77379078 0.00882679 C3.73836356 0.00797237 4.70293634 0.00711794 5.6967386 0.00623763 C8.95506132 0.00457989 12.21333346 0.01010898 15.47165149 0.01555592 C17.79689257 0.01583775 20.12213374 0.01568013 22.44737476 0.01511341 C28.781832 0.01482529 35.11627049 0.02072436 41.45072335 0.02768737 C47.39333475 0.03328789 53.3359454 0.03430919 59.27855908 0.03533924 C71.05223667 0.03753007 82.82590735 0.04419098 94.59958118 0.05364186 C106.03935947 0.06281519 117.47913589 0.06989641 128.91891712 0.07414967 C129.62358535 0.07441239 130.32825359 0.07467512 131.0542754 0.0749458 C134.58924557 0.0762508 138.12421575 0.07751452 141.65918595 0.0787577 C171.00414962 0.08913127 200.34910654 0.10682453 229.6940636 0.12908131 C229.89707584 0.73974949 230.10008808 1.35041767 230.3092522 1.97959095 C230.57715061 2.78455509 230.84504902 3.58951924 231.12106556 4.41887623 C231.38595279 5.21516941 231.65084003 6.0114626 231.92375416 6.83188587 C232.55782228 8.72278622 233.20777145 10.60835375 233.86203235 12.49236256 C234.19847767 13.46560475 234.53492298 14.43884693 234.8815636 15.44158131 C235.22574329 16.42771412 235.56992298 17.41384693 235.92453235 18.42986256 C236.6940636 21.12908131 236.6940636 21.12908131 236.6940636 25.12908131 C153.5340636 25.12908131 70.3740636 25.12908131 -15.3059364 25.12908131 C-14.63172112 21.08378966 -14.14430877 18.28296253 -12.7121864 14.64080006 C-12.40410046 13.85253834 -12.09601452 13.06427662 -11.77859265 12.25212818 C-11.45761608 11.44839772 -11.13663952 10.64466725 -10.8059364 9.81658131 C-10.32447155 8.5819817 -10.32447155 8.5819817 -9.83328015 7.32244068 C-6.95438895 0.01680256 -6.95438895 0.01680256 0 0 Z " fill="#C03A22" transform="translate(389.305936396122,434.8709186911583)"/>
<path d="M0 0 C17.82 0 35.64 0 54 0 C54 7.92 54 15.84 54 24 C36.18 24 18.36 24 0 24 C0 16.08 0 8.16 0 0 Z " fill="#E2E2E2" transform="translate(938,489)"/>
<path d="M0 0 C3.55934634 1.6847918 6.13725217 3.71889262 9.0625 6.375 C9.91972656 7.14585937 10.77695312 7.91671875 11.66015625 8.7109375 C13.69931924 10.70584486 15.37416711 12.66519735 17 15 C15.6238464 18.09179136 14.04841555 20.19638753 11.65185547 22.57519531 C10.97130096 23.25559875 10.29074646 23.9360022 9.58956909 24.63702393 C8.85618317 25.36008728 8.12279724 26.08315063 7.3671875 26.828125 C6.61535187 27.57713074 5.86351624 28.32613647 5.08889771 29.09783936 C2.68892099 31.4866302 0.28207991 33.86836897 -2.125 36.25 C-3.75436352 37.86933169 -5.38327534 39.48911802 -7.01171875 41.109375 C-11.00258806 45.07820505 -14.99911415 49.04126899 -19 53 C-21.90619135 51.60403514 -23.97121766 50.26935799 -26.234375 47.9609375 C-26.80800781 47.38085938 -27.38164063 46.80078125 -27.97265625 46.203125 C-28.55917969 45.59984375 -29.14570312 44.9965625 -29.75 44.375 C-30.35199219 43.76398438 -30.95398438 43.15296875 -31.57421875 42.5234375 C-33.05405305 41.02011376 -34.52764676 39.51065144 -36 38 C-34.6238464 34.90820864 -33.04841555 32.80361247 -30.65185547 30.42480469 C-29.97130096 29.74440125 -29.29074646 29.0639978 -28.58956909 28.36297607 C-27.85618317 27.63991272 -27.12279724 26.91684937 -26.3671875 26.171875 C-25.61535187 25.42286926 -24.86351624 24.67386353 -24.08889771 23.90216064 C-21.68892099 21.5133698 -19.28207991 19.13163103 -16.875 16.75 C-15.24563648 15.13066831 -13.61672466 13.51088198 -11.98828125 11.890625 C-7.99741194 7.92179495 -4.00088585 3.95873101 0 0 Z " fill="#E8E8E8" transform="translate(837,143)"/>
<path d="M0 0 C3.01647998 1.35548965 5.14376688 2.88055291 7.49926758 5.19287109 C8.16287796 5.84049408 8.82648834 6.48811707 9.51020813 7.15536499 C10.21453476 7.85432892 10.91886139 8.55329285 11.64453125 9.2734375 C12.37371262 9.99359039 13.10289398 10.71374329 13.85417175 11.45571899 C15.39077185 12.97782898 16.92459036 14.50275146 18.45581055 16.03027344 C20.80909068 18.37160799 23.18037388 20.69364614 25.55273438 23.015625 C27.04281194 24.49624414 28.53178323 25.97797762 30.01953125 27.4609375 C30.73397903 28.15585297 31.44842682 28.85076843 32.18452454 29.56674194 C32.83237411 30.22066925 33.48022369 30.87459656 34.14770508 31.54833984 C34.72410233 32.11966644 35.30049957 32.69099304 35.8943634 33.27963257 C37 35 37 35 36.76568604 37.10702515 C35.82430449 39.43436497 34.63720422 40.70434184 32.83984375 42.453125 C31.8972168 43.38125 31.8972168 43.38125 30.93554688 44.328125 C30.27619141 44.96234375 29.61683594 45.5965625 28.9375 46.25 C27.94266602 47.22453125 27.94266602 47.22453125 26.92773438 48.21875 C25.29169612 49.81947807 23.64782895 51.41143925 22 53 C17.01407125 48.82222235 12.33295716 44.46872723 7.75390625 39.8515625 C7.09792953 39.19417084 6.44195282 38.53677917 5.76609802 37.85946655 C3.69584732 35.78367138 1.62912349 33.70440573 -0.4375 31.625 C-1.85067862 30.2067992 -3.26408794 28.78882824 -4.67773438 27.37109375 C-8.12116065 23.91671223 -11.56143099 20.4592163 -15 17 C-13.60403514 14.09380865 -12.26935799 12.02878234 -9.9609375 9.765625 C-9.38085938 9.19199219 -8.80078125 8.61835937 -8.203125 8.02734375 C-7.59984375 7.44082031 -6.9965625 6.85429688 -6.375 6.25 C-5.76398437 5.64800781 -5.15296875 5.04601562 -4.5234375 4.42578125 C-3.02011376 2.94594695 -1.51065144 1.47235324 0 0 Z " fill="#E7E7E7" transform="translate(820,802)"/>
<path d="M0 0 C2.87556264 1.30732011 4.97103155 2.71011166 7.22387695 4.91748047 C7.82742508 5.5050412 8.43097321 6.09260193 9.05281067 6.69796753 C10.01086861 7.64798141 10.01086861 7.64798141 10.98828125 8.6171875 C11.9821711 9.59753464 11.9821711 9.59753464 12.99613953 10.59768677 C14.39150009 11.97856348 15.78408609 13.36224874 17.17407227 14.74853516 C19.31009554 16.872609 21.46405887 18.97731909 23.61914062 21.08203125 C24.97249898 22.42593144 26.32475167 23.7709462 27.67578125 25.1171875 C28.3246077 25.74648163 28.97343414 26.37577576 29.641922 27.0241394 C30.52360298 27.91493698 30.52360298 27.91493698 31.4230957 28.82373047 C31.94619827 29.34176239 32.46930084 29.85979431 33.008255 30.39352417 C34 32 34 32 33.76335144 34.09158325 C32.7600106 36.59998548 31.40284957 37.67883063 29.3125 39.375 C25.6641465 42.41858139 22.31708382 45.59998908 19 49 C16.09456128 47.68623083 14.03338941 46.27943508 11.79199219 44.01904297 C11.19167175 43.41857147 10.59135132 42.81809998 9.97283936 42.19943237 C9.33727112 41.55354156 8.70170288 40.90765076 8.046875 40.2421875 C7.38665344 39.57913605 6.72643188 38.91608459 6.04620361 38.23294067 C3.94272176 36.11828168 1.84630858 33.99676788 -0.25 31.875 C-1.67662261 30.43834443 -3.10370072 29.00214102 -4.53125 27.56640625 C-8.02613661 24.04949196 -11.51470062 20.52641453 -15 17 C-13.60403514 14.09380865 -12.26935799 12.02878234 -9.9609375 9.765625 C-9.38085938 9.19199219 -8.80078125 8.61835938 -8.203125 8.02734375 C-7.59984375 7.44082031 -6.9965625 6.85429687 -6.375 6.25 C-5.76398438 5.64800781 -5.15296875 5.04601562 -4.5234375 4.42578125 C-3.02011376 2.94594695 -1.51065144 1.47235324 0 0 Z " fill="#E8E8E8" transform="translate(161,143)"/>
<path d="M0 0 C15.18 0 30.36 0 46 0 C46 7.92 46 15.84 46 24 C30.82 24 15.64 24 0 24 C0 16.08 0 8.16 0 0 Z " fill="#E3E3E3" transform="translate(8,489)"/>
<path d="M0 0 C7.92 0 15.84 0 24 0 C24 15.18 24 30.36 24 46 C16.08 46 8.16 46 0 46 C0 30.82 0 15.64 0 0 Z " fill="#E4E4E4" transform="translate(488,9)"/>
<path d="M0 0 C2.90619135 1.39596486 4.97121766 2.73064201 7.234375 5.0390625 C7.80800781 5.61914062 8.38164062 6.19921875 8.97265625 6.796875 C9.85244141 7.70179688 9.85244141 7.70179688 10.75 8.625 C11.35199219 9.23601563 11.95398438 9.84703125 12.57421875 10.4765625 C14.05405305 11.97988624 15.52764676 13.48934856 17 15 C15.68623083 17.90543872 14.27943508 19.96661059 12.01904297 22.20800781 C11.41857147 22.80832825 10.81809998 23.40864868 10.19943237 24.02716064 C9.55354156 24.66272888 8.90765076 25.29829712 8.2421875 25.953125 C7.57913605 26.61334656 6.91608459 27.27356812 6.23294067 27.95379639 C4.11828168 30.05727824 1.99676788 32.15369142 -0.125 34.25 C-1.56165557 35.67662261 -2.99785898 37.10370072 -4.43359375 38.53125 C-7.95050804 42.02613661 -11.47358547 45.51470062 -15 49 C-16.11102333 48.05069805 -17.22161661 47.10089277 -18.33203125 46.15087891 C-18.95053955 45.6220108 -19.56904785 45.0931427 -20.20629883 44.54824829 C-22.52683392 42.54525886 -24.78425709 40.49342988 -27 38.375 C-28.175625 37.27285156 -28.175625 37.27285156 -29.375 36.1484375 C-31 34 -31 34 -30.78077698 32.06622314 C-29.89414925 29.71987996 -28.91165406 28.54874627 -27.13256836 26.79199219 C-26.53202133 26.19167175 -25.9314743 25.59135132 -25.31272888 24.97283936 C-24.66167679 24.33727112 -24.01062469 23.70170288 -23.33984375 23.046875 C-22.67537735 22.38665344 -22.01091095 21.72643188 -21.3263092 21.04620361 C-19.20364437 18.9403236 -17.07078395 16.84511672 -14.9375 14.75 C-13.49606066 13.32360768 -12.05529691 11.8965323 -10.61523438 10.46875 C-7.08461168 6.97119406 -3.54480947 3.48317435 0 0 Z " fill="#E8E8E8" transform="translate(174,806)"/>
<path d="M0 0 C1.98 0.495 1.98 0.495 4 1 C4.5625 2.9375 4.5625 2.9375 5 5 C2.85573594 7.14426406 -1.88979453 6.57182305 -4.875 6.8125 C-16.81422377 7.86253281 -28.60775497 9.64692212 -40.45019531 11.46337891 C-46.44037361 12.3689093 -52.43904473 13.21385839 -58.4375 14.0625 C-66.94394763 15.27125306 -75.44578439 16.50348554 -83.94116211 17.78759766 C-96.51545933 19.68612668 -109.09810753 21.52865098 -121.68115234 23.36816406 C-124.51761441 23.78283612 -127.35386874 24.19888418 -130.18994141 24.61621094 C-134.06350342 25.18595109 -137.93793877 25.74959301 -141.8125 26.3125 C-142.97394531 26.48386475 -144.13539063 26.65522949 -145.33203125 26.83178711 C-146.40453125 26.98655518 -147.47703125 27.14132324 -148.58203125 27.30078125 C-149.51249268 27.43653564 -150.4429541 27.57229004 -151.40161133 27.7121582 C-153.95845929 27.99539824 -156.42992247 28.05196474 -159 28 C-159 28.66 -159 29.32 -159 30 C-159.59329102 30.56686523 -160.18658203 31.13373047 -160.79785156 31.71777344 C-163.43036568 34.44601534 -164.66697289 37.06734035 -166.234375 40.515625 C-166.51726379 41.13145447 -166.80015259 41.74728394 -167.09161377 42.3817749 C-167.98615062 44.33413954 -168.86820712 46.29185154 -169.75 48.25 C-170.35725487 49.58110267 -170.96531963 50.91183617 -171.57421875 52.2421875 C-173.05887337 55.49057338 -174.53239469 58.74386963 -176 62 C-171.98285061 60.12327686 -168.92272845 57.48081534 -165.625 54.5625 C-161.83985976 51.24672119 -158.04274556 47.98830253 -154.0390625 44.9375 C-153.40403809 44.45337646 -152.76901367 43.96925293 -152.11474609 43.47045898 C-150.89807495 42.55182289 -149.67467582 41.64201097 -148.44384766 40.74243164 C-145.03057603 38.15988498 -143.16046092 36.15831831 -142 32 C-140.35 32.33 -138.7 32.66 -137 33 C-137.1875 35.375 -137.1875 35.375 -138 38 C-138.67675781 38.25136719 -139.35351562 38.50273437 -140.05078125 38.76171875 C-144.33080625 40.55876236 -147.47771047 43.45539768 -151 46.4375 C-151.74531982 47.05987549 -152.49063965 47.68225098 -153.25854492 48.32348633 C-155.51192006 50.20840321 -157.75727716 52.10242704 -160 54 C-160.98734131 54.8343457 -160.98734131 54.8343457 -161.99462891 55.68554688 C-165.44691287 58.60403537 -165.44691287 58.60403537 -168.88867188 61.53491211 C-170.96900529 63.3097396 -173.04364776 65.03151082 -175.26171875 66.6328125 C-177.22355694 67.99526949 -177.22355694 67.99526949 -178.5 70.6875 C-178.995 71.450625 -179.49 72.21375 -180 73 C-181.32 73 -182.64 73 -184 73 C-184.25 70.25 -184.25 70.25 -184 67 C-183.40985107 66.41581299 -182.81970215 65.83162598 -182.21166992 65.22973633 C-179.50501473 62.50097136 -178.00242826 59.49704367 -176.36328125 56.07421875 C-176.03837204 55.40840286 -175.71346283 54.74258698 -175.37870789 54.05659485 C-174.6964767 52.65245319 -174.01847525 51.24624941 -173.34448242 49.83813477 C-172.31778646 47.69851689 -171.27223144 45.56888825 -170.22460938 43.43945312 C-169.56133834 42.06826965 -168.89919159 40.69654164 -168.23828125 39.32421875 C-167.92788406 38.69480881 -167.61748688 38.06539886 -167.29768372 37.41691589 C-165.30131976 33.19800034 -164.44870932 29.58684725 -164 25 C-162.0625 24.4375 -162.0625 24.4375 -160 24 C-159.67 24.33 -159.34 24.66 -159 25 C-151.0529278 24.8172904 -143.08290852 23.35187355 -135.23866653 22.16718674 C-132.29384155 21.72251865 -129.34796064 21.28501767 -126.402174 20.84677315 C-124.80082806 20.60843286 -123.1995375 20.3697203 -121.59829903 20.1306591 C-112.65963298 18.79671085 -103.71656872 17.49315612 -94.77335358 16.19011688 C-90.93580358 15.63087757 -87.09838802 15.07071865 -83.26096725 14.51059341 C-76.39604525 13.5085913 -69.53104444 12.50712941 -62.66601562 11.50585938 C-57.78323856 10.79368204 -52.90051941 10.08110865 -48.01783371 9.36830521 C-46.19785078 9.10269065 -44.37784699 8.83721898 -42.55781937 8.57191086 C-40.00545159 8.19984153 -37.45315718 7.82727258 -34.90087891 7.45458984 C-33.68416221 7.27732896 -33.68416221 7.27732896 -32.44286537 7.09648705 C-28.10474014 6.4623931 -23.76916846 5.81415784 -19.43572998 5.14874268 C-18.5234432 5.00934076 -17.61115643 4.86993885 -16.67122459 4.72631264 C-14.92474493 4.45877128 -13.17863808 4.18878083 -11.43297768 3.91594505 C-10.64809156 3.79589418 -9.86320545 3.67584332 -9.05453491 3.55215454 C-8.36632849 3.44531656 -7.67812206 3.33847858 -6.9690609 3.22840309 C-5 3 -5 3 -1 3 C-0.67 2.01 -0.34 1.02 0 0 Z " fill="#C41D1D" transform="translate(880,273)"/>
<path d="M0 0 C2.3125 0.1875 2.3125 0.1875 5 1 C5.44988281 1.75667969 5.89976563 2.51335937 6.36328125 3.29296875 C8.20283886 6.33548289 10.07972822 7.94352677 12.875 10.125 C13.84953125 10.8984375 14.8240625 11.671875 15.828125 12.46875 C16.34439453 12.87738281 16.86066406 13.28601563 17.39257812 13.70703125 C20.18638847 15.95430032 22.89969378 18.295593 25.625 20.625 C35.29720764 29.59027215 35.29720764 29.59027215 47 35 C46.67 36.65 46.34 38.3 46 40 C43.625 39.75 43.625 39.75 41 39 C40.71511719 38.40832031 40.43023437 37.81664062 40.13671875 37.20703125 C38.64593599 34.31255614 36.74703542 32.94240696 34.1875 30.9375 C33.20394531 30.15503906 32.22039062 29.37257813 31.20703125 28.56640625 C30.68447754 28.15148926 30.16192383 27.73657227 29.62353516 27.30908203 C26.82654973 25.05382852 24.10565823 22.70971278 21.375 20.375 C16.35923042 16.103573 11.25370826 11.97761374 6 8 C6.81308594 9.62617188 7.62620356 11.25232792 8.43945312 12.87841797 C9.15221256 14.30426499 9.86444394 15.73037609 10.57617188 17.15673828 C12.4760657 20.96236919 14.38473547 24.7630894 16.3125 28.5546875 C16.67923828 29.27914063 17.04597656 30.00359375 17.42382812 30.75 C18.13286732 32.15006288 18.84503397 33.54854697 19.56054688 34.9453125 C22 39.77513519 22 39.77513519 22 42 C23.485 42.495 23.485 42.495 25 43 C25 43.66 25 44.32 25 45 C26.04607422 45.03867187 26.04607422 45.03867187 27.11328125 45.078125 C36.52280354 45.58364268 45.73125623 46.9310315 55.0390625 48.35327148 C63.28551158 49.60987853 71.53970321 50.74456541 79.8125 51.8125 C92.81975848 53.50902359 105.78421638 55.45107317 118.75 57.4375 C120.73396395 57.7407498 122.71793204 58.04397253 124.7019043 58.34716797 C132.19895479 59.49401723 139.69586418 60.64169441 147.19042969 61.8046875 C151.1161006 62.41364935 155.04294539 63.01437584 158.9708252 63.60891724 C160.37945389 63.82377961 161.78760399 64.04180963 163.19519043 64.26339722 C171.53382772 65.57514017 179.55628171 66.29126415 188 66 C188.625 67.875 188.625 67.875 189 70 C188.34 70.66 187.68 71.32 187 72 C183.46428571 71.46428571 183.46428571 71.46428571 182 70 C179.14035208 69.51705084 176.29027465 69.08919357 173.41796875 68.6953125 C172.53458328 68.5706662 171.65119781 68.4460199 170.74104309 68.31759644 C167.89039927 67.91612197 165.03899871 67.5203526 162.1875 67.125 C158.4932754 66.60829358 154.79936063 66.08939147 151.10546875 65.5703125 C150.18124115 65.4407869 149.25701355 65.31126129 148.30477905 65.17781067 C139.63114283 63.95809684 130.97028734 62.65863052 122.30996704 61.3482666 C116.04241764 60.40332752 109.77097771 59.48435843 103.5 58.5625 C102.78342224 58.45705872 102.06684448 58.35161743 101.32855225 58.24298096 C90.11187872 56.59318893 78.89119752 54.97333873 67.66552734 53.38574219 C61.65662574 52.53345295 55.65598987 51.64326403 49.65966797 50.70678711 C39.79024327 49.17152214 30.01034983 48 20 48 C19.82726562 46.84371094 19.65453125 45.68742187 19.4765625 44.49609375 C17.78304627 36.87228392 13.85439569 29.99816981 10.375 23.0625 C9.31517126 20.9339465 8.25817794 18.80406854 7.20547485 16.67198181 C6.55348817 15.35309371 5.89704255 14.03639844 5.23568726 12.72218323 C3 8.2224211 3 8.2224211 3 6 C1.68 5.67 0.36 5.34 -1 5 C-0.67 3.35 -0.34 1.7 0 0 Z " fill="#C7503A" transform="translate(122,266)"/>
<path d="M0 0 C1.32 0.33 2.64 0.66 4 1 C4.6875 2.6875 4.6875 2.6875 5 5 C4.55809326 5.68723145 4.11618652 6.37446289 3.66088867 7.08251953 C1.47596089 10.92051556 0.67862557 14.70374126 -0.26171875 18.9921875 C-0.45723831 19.85635284 -0.65275787 20.72051819 -0.85420227 21.61087036 C-1.26431895 23.4337825 -1.67000757 25.25769584 -2.0715332 27.08251953 C-2.6844809 29.86131294 -3.31479528 32.63574918 -3.94726562 35.41015625 C-4.34479732 37.18726604 -4.74131528 38.96460297 -5.13671875 40.7421875 C-5.41789803 41.97689285 -5.41789803 41.97689285 -5.70475769 43.23654175 C-6.72691359 47.93753517 -7.19177144 52.18923061 -7 57 C-8.875 57.625 -8.875 57.625 -11 58 C-11.66 57.34 -12.32 56.68 -13 56 C-15.08126119 55.26343252 -15.08126119 55.26343252 -17.53125 54.703125 C-18.47266846 54.46996582 -19.41408691 54.23680664 -20.3840332 53.99658203 C-21.41230225 53.75020996 -22.44057129 53.50383789 -23.5 53.25 C-24.57660889 52.98687012 -25.65321777 52.72374023 -26.76245117 52.45263672 C-36.40922302 50.10882224 -46.0778924 47.85874611 -55.7578125 45.65625 C-60.44084169 44.59053942 -65.11881362 43.50546905 -69.79371643 42.40481567 C-72.97216569 41.65739723 -76.15205857 40.91623341 -79.3321228 40.17572021 C-80.88891929 39.81171937 -82.44510751 39.44510607 -84.00064087 39.07574463 C-86.19022384 38.55633689 -88.38188807 38.04672876 -90.57421875 37.5390625 C-92.47046997 37.09361084 -92.47046997 37.09361084 -94.4050293 36.63916016 C-98.01632742 35.9970971 -101.34052653 35.88405046 -105 36 C-105.33 34.35 -105.66 32.7 -106 31 C-103.28903949 30.42494777 -100.61933819 29.95314703 -97.86698914 29.61437988 C-93.51689152 28.92324464 -89.41625946 27.82799426 -85.19067383 26.60742188 C-84.3377626 26.36504288 -83.48485138 26.12266388 -82.60609436 25.87294006 C-79.80516047 25.07584351 -77.00611507 24.27231669 -74.20703125 23.46875 C-72.25375605 22.91164999 -70.30035957 22.35497503 -68.34684753 21.79870605 C-63.21643053 20.33666488 -58.08756741 18.86924632 -52.95904541 17.40057373 C-46.72220517 15.61552577 -40.4836365 13.83653028 -34.24524212 12.05692291 C-29.39322265 10.67272237 -24.54149442 9.28752874 -19.69062805 7.89929199 C-18.79935211 7.64445541 -17.90807617 7.38961884 -16.98979187 7.12705994 C-15.32788167 6.65185189 -13.66611354 6.17614658 -12.0045166 5.69984436 C-6.15161787 4.02721566 -6.15161787 4.02721566 -3.88907909 3.62108612 C-1.61297918 3.08807675 -1.61297918 3.08807675 0 0 Z M-10.875 7.5625 C-12.11507812 7.92859375 -13.35515625 8.2946875 -14.6328125 8.671875 C-17.79782399 9.6291842 -20.95775687 10.6025733 -24.1171875 11.578125 C-25.99463502 12.15675851 -27.87224521 12.73486443 -29.75 13.3125 C-30.72437012 13.6122876 -31.69874023 13.9120752 -32.70263672 14.22094727 C-40.09541017 16.47307015 -47.52937682 18.5231205 -55 20.5 C-63.65140044 22.7913154 -72.25071782 25.20507305 -80.8125 27.8125 C-81.76705078 28.10253906 -82.72160156 28.39257812 -83.70507812 28.69140625 C-87.87554523 29.97555879 -91.98550754 31.27469402 -96 33 C-93.13337915 34.54539686 -90.43142111 35.51530046 -87.2734375 36.296875 C-86.33685303 36.53043701 -85.40026855 36.76399902 -84.43530273 37.00463867 C-83.42540283 37.25060791 -82.41550293 37.49657715 -81.375 37.75 C-80.3219165 38.00950439 -79.26883301 38.26900879 -78.18383789 38.53637695 C-62.26008607 42.43604733 -46.31002838 46.26923546 -30.203125 49.33984375 C-25.94341604 50.21775938 -21.76691187 51.3523109 -17.5859375 52.546875 C-14.73203622 53.04695438 -12.79983282 52.63257864 -10 52 C-5.7125089 34.33601741 -5.7125089 34.33601741 -1.625 16.625 C-1.45774414 15.88975098 -1.29048828 15.15450195 -1.11816406 14.39697266 C-0.48125394 11.52813771 0 8.94943767 0 6 C-3.94702441 5.81927544 -7.09620498 6.43640024 -10.875 7.5625 Z " fill="#C85540" transform="translate(905,350)"/>
<path d="M0 0 C1.32 0.33 2.64 0.66 4 1 C4.495 2.98 4.495 2.98 5 5 C3.824375 5.12375 3.824375 5.12375 2.625 5.25 C1.325625 5.62125 1.325625 5.62125 0 6 C-0.68321651 7.32492921 -1.34479102 8.6609991 -2 10 C-3.66683289 12.33625569 -5.46069027 14.56930641 -7.25 16.8125 C-7.74145508 17.43761475 -8.23291016 18.06272949 -8.73925781 18.70678711 C-11.29978936 21.94547924 -13.92378211 25.04964508 -16.75 28.0625 C-19.27817274 30.68032542 -19.27817274 30.68032542 -18.81079102 33.2199707 C-17.79955575 36.68728053 -16.57483775 40.0503443 -15.27734375 43.41796875 C-15.01240616 44.1164241 -14.74746857 44.81487946 -14.47450256 45.53450012 C-13.63252371 47.75359113 -12.78555133 49.97072319 -11.9375 52.1875 C-11.08610047 54.41506859 -10.23588915 56.64304889 -9.38978577 58.87263489 C-8.86432734 60.25720907 -8.33580472 61.64062498 -7.80393982 63.02275085 C-6 67.77478769 -6 67.77478769 -6 70 C-5.01 70.33 -4.02 70.66 -3 71 C-3.33 72.65 -3.66 74.3 -4 76 C-5.65 75.67 -7.3 75.34 -9 75 C-9.05994141 73.28103516 -9.05994141 73.28103516 -9.12109375 71.52734375 C-9.97420129 63.84636669 -13.26516881 56.7062947 -16.0625 49.5625 C-16.91487713 47.36218883 -17.76421662 45.16076435 -18.61021423 42.95799255 C-19.13454863 41.59522321 -19.66302063 40.23403703 -20.19606018 38.87464905 C-22 34.22087445 -22 34.22087445 -22 32 C-23.23234375 31.76539063 -24.4646875 31.53078125 -25.734375 31.2890625 C-32.91979379 29.69386577 -39.64240708 26.80227584 -46.46875 24.1015625 C-47.49484375 23.70453125 -48.5209375 23.3075 -49.578125 22.8984375 C-50.50012695 22.53411621 -51.42212891 22.16979492 -52.37207031 21.79443359 C-55.06227507 20.981174 -57.20765219 20.84669216 -60 21 C-60.33 19.35 -60.66 17.7 -61 16 C-58.75 15.25 -58.75 15.25 -56 15 C-55.12214844 15.90141724 -55.12214844 15.90141724 -54.2265625 16.82104492 C-51.52488877 19.4649526 -49.17418138 20.33944391 -45.625 21.61328125 C-44.39265625 22.05607422 -43.1603125 22.49886719 -41.890625 22.95507812 C-41.25189453 23.17752197 -40.61316406 23.39996582 -39.95507812 23.62915039 C-38.00018948 24.31243377 -36.05489903 25.01906684 -34.109375 25.72851562 C-27.14889736 28.73897779 -27.14889736 28.73897779 -20 28 C-18.08170197 26.07975426 -18.08170197 26.07975426 -16.3125 23.625 C-13.36243078 19.76339254 -10.33321579 16.01665719 -7.1875 12.3125 C-3.91104096 8.33555661 -1.6266925 4.88007749 0 0 Z " fill="#C7533D" transform="translate(96,352)"/>
<path d="M0 0 C0 0.33 0 0.66 0 1 C-0.66717041 1.17539307 -1.33434082 1.35078613 -2.02172852 1.53149414 C-14.85533115 4.91672283 -27.62058279 8.42918377 -40.29541016 12.36889648 C-48.72524742 14.9669947 -57.22665266 17.25445057 -65.75683594 19.49804688 C-73.22070962 21.47424366 -80.53980157 23.70386081 -87.828125 26.25 C-91.27937238 27.06605849 -93.57982449 26.82913346 -97 26 C-93.41193486 23.60795658 -89.77568847 22.62732245 -85.67651367 21.4621582 C-84.82739914 21.21642059 -83.97828461 20.97068298 -83.10343933 20.71749878 C-80.29324165 19.90614942 -77.4808037 19.10293637 -74.66796875 18.30078125 C-72.71361869 17.74084186 -70.75929883 17.18079708 -68.80500793 16.62065125 C-64.7063179 15.447528 -60.6063459 14.2790058 -56.50561523 13.11303711 C-51.25305299 11.61866247 -46.00535263 10.10792385 -40.75867748 8.59302998 C-36.72303576 7.43070458 -32.68423134 6.27969295 -28.64446449 5.13179588 C-26.7084343 4.57967791 -24.773571 4.02345096 -22.83992577 3.46303749 C-20.13373138 2.68000852 -17.42348538 1.91295515 -14.71166992 1.1496582 C-13.91508972 0.91543655 -13.11850952 0.6812149 -12.29779053 0.43989563 C-7.83170778 -0.7966194 -4.60735651 -1.19025404 0 0 Z " fill="#C95C48" transform="translate(905,355)"/>
<path d="M0 0 C-2.47340336 2.47340336 -3.69276299 2.45135705 -7.1171875 2.9296875 C-8.18638428 3.0834082 -9.25558105 3.23712891 -10.35717773 3.39550781 C-11.51805908 3.55374023 -12.67894043 3.71197266 -13.875 3.875 C-15.06488525 4.04354492 -16.25477051 4.21208984 -17.48071289 4.38574219 C-20.0112659 4.74377532 -22.54229014 5.09849071 -25.07373047 5.45019531 C-29.01106085 6.00154888 -32.94517472 6.57200564 -36.87890625 7.1484375 C-39.39841315 7.51579206 -41.91794369 7.88298452 -44.4375 8.25 C-46.2306665 8.51272705 -46.2306665 8.51272705 -48.06005859 8.78076172 C-49.7299585 9.02076904 -49.7299585 9.02076904 -51.43359375 9.265625 C-52.41384521 9.40774414 -53.39409668 9.54986328 -54.40405273 9.69628906 C-57 10 -57 10 -61 10 C-61 9.34 -61 8.68 -61 8 C-32.24195893 3.11272827 -32.24195893 3.11272827 -19.25 1.1875 C-18.44989502 1.0639917 -17.64979004 0.9404834 -16.82543945 0.81323242 C-11.19312838 0.00181291 -5.68583565 -0.12746171 0 0 Z " fill="#C41E1E" transform="translate(783,291)"/>
<path d="M0 0 C0.33 0 0.66 0 1 0 C1 4.62 1 9.24 1 14 C-0.32 14.33 -1.64 14.66 -3 15 C-3.66 14.34 -4.32 13.68 -5 13 C-6.52056618 12.40165446 -8.06612088 11.86493344 -9.625 11.375 C-10.44226563 11.11460937 -11.25953125 10.85421875 -12.1015625 10.5859375 C-13.04128906 10.29589844 -13.04128906 10.29589844 -14 10 C-14 9.67 -14 9.34 -14 9 C-10.04 9 -6.08 9 -2 9 C-1.34 6.03 -0.68 3.06 0 0 Z " fill="#C7503A" transform="translate(897,393)"/>
<path d="M0 0 C7.26 0 14.52 0 22 0 C22.33 1.32 22.66 2.64 23 4 C22.34 4.66 21.68 5.32 21 6 C17.46428571 5.46428571 17.46428571 5.46428571 16 4 C12.41508882 3.46067708 8.82153738 3.03332955 5.22265625 2.59765625 C2 2 2 2 0 0 Z " fill="#C7513C" transform="translate(288,332)"/>
<path d="M0 0 C-2.88803194 1.59814325 -5.3648268 2.37700553 -8.625 2.8515625 C-9.49640625 2.98046875 -10.3678125 3.109375 -11.265625 3.2421875 C-12.16796875 3.36851562 -13.0703125 3.49484375 -14 3.625 C-14.90234375 3.7590625 -15.8046875 3.893125 -16.734375 4.03125 C-20.5615037 4.58607043 -24.11946527 5 -28 5 C-28 4.34 -28 3.68 -28 3 C-25.02211984 2.49106423 -22.0430746 1.99269364 -19.0625 1.5 C-18.23169922 1.35691406 -17.40089844 1.21382813 -16.54492188 1.06640625 C-10.95396627 0.15270923 -5.66506422 -0.13719631 0 0 Z " fill="#C31616" transform="translate(750,296)"/>
<path d="M0 0 C1.32 0.33 2.64 0.66 4 1 C4.5625 2.9375 4.5625 2.9375 5 5 C4 6 4 6 1.671875 6.1328125 C0.70765625 6.13023437 -0.2565625 6.12765625 -1.25 6.125 C-2.20390625 6.12757813 -3.1578125 6.13015625 -4.140625 6.1328125 C-6.86463928 6.00628725 -9.34675009 5.61005381 -12 5 C-12 4.67 -12 4.34 -12 4 C-6.555 3.505 -6.555 3.505 -1 3 C-0.67 2.01 -0.34 1.02 0 0 Z " fill="#C74537" transform="translate(880,273)"/>
<path d="M0 0 C1.85772162 0.08984301 3.71247985 0.24611861 5.5625 0.4375 C7.08037109 0.59025391 7.08037109 0.59025391 8.62890625 0.74609375 C9.80259766 0.87177734 9.80259766 0.87177734 11 1 C10.01 1.33 9.02 1.66 8 2 C8 2.99 8 3.98 8 5 C5.36 5.33 2.72 5.66 0 6 C-0.38218767 4.34385343 -0.71395102 2.67542976 -1 1 C-0.67 0.67 -0.34 0.34 0 0 Z " fill="#C54830" transform="translate(800,380)"/>
<path d="M0 0 C3.81520434 0.40160046 5.44550292 1.22337274 8 4 C10.09989652 5.17574711 10.09989652 5.17574711 12 6 C7.91556885 7.53166168 4.20544343 6.63081652 0 6 C-0.38218767 4.34385343 -0.71395102 2.67542976 -1 1 C-0.67 0.67 -0.34 0.34 0 0 Z " fill="#C54730" transform="translate(36,367)"/>
<path d="M0 0 C0 0.33 0 0.66 0 1 C-16.70842825 3.48063781 -16.70842825 3.48063781 -25 2 C-25 1.67 -25 1.34 -25 1 C-16.41845002 -0.51586503 -8.6465823 -1.30581039 0 0 Z " fill="#C82F2F" transform="translate(804,289)"/>
<path d="M0 0 C0 0.33 0 0.66 0 1 C-16.70842825 3.48063781 -16.70842825 3.48063781 -25 2 C-25 1.67 -25 1.34 -25 1 C-16.41845002 -0.51586503 -8.6465823 -1.30581039 0 0 Z " fill="#C83030" transform="translate(845,283)"/>
<path d="M0 0 C1.32 0.33 2.64 0.66 4 1 C4.75 2.625 4.75 2.625 5 5 C3.125 8.25 3.125 8.25 1 11 C0.67 11 0.34 11 0 11 C0 9.02 0 7.04 0 5 C-0.66 5 -1.32 5 -2 5 C-1.34 3.35 -0.68 1.7 0 0 Z " fill="#C64C35" transform="translate(905,350)"/>
<path d="M0 0 C2.3125 0.125 2.3125 0.125 5 1 C6.8125 4.0625 6.8125 4.0625 8 7 C6.35 7.33 4.7 7.66 3 8 C3 7.34 3 6.68 3 6 C1.68 5.67 0.36 5.34 -1 5 C-0.67 3.35 -0.34 1.7 0 0 Z " fill="#C54830" transform="translate(122,266)"/>
<path d="M0 0 C1.67542976 0.28604898 3.34385343 0.61781233 5 1 C4.67 2.98 4.34 4.96 4 7 C2.35 6.67 0.7 6.34 -1 6 C-1.042721 4.33388095 -1.04063832 2.66617115 -1 1 C-0.67 0.67 -0.34 0.34 0 0 Z " fill="#343434" transform="translate(767,318)"/>
<path d="M0 0 C1.37384634 0.29202531 2.74494711 0.59721202 4.11328125 0.9140625 C4.81517578 1.06617188 5.51707031 1.21828125 6.24023438 1.375 C7.97122745 1.75181482 9.69886712 2.14397513 11.42578125 2.5390625 C7.51358622 5.14719252 4.80476914 4.41006557 0.42578125 3.5390625 C-1.94114327 2.94733137 -4.24366317 2.26736112 -6.57421875 1.5390625 C-3.57421875 -0.4609375 -3.57421875 -0.4609375 0 0 Z " fill="#CA5E4A" transform="translate(874.57421875,398.4609375)"/>
<path d="M0 0 C1.65 0.33 3.3 0.66 5 1 C5 2.65 5 4.3 5 6 C3.125 6.625 3.125 6.625 1 7 C0.34 6.34 -0.32 5.68 -1 5 C-0.625 2.375 -0.625 2.375 0 0 Z " fill="#313131" transform="translate(189,386)"/>
<path d="M0 0 C1.5625 1.25 1.5625 1.25 3 3 C2.6875 5.1875 2.6875 5.1875 2 7 C0.35 7.33 -1.3 7.66 -3 8 C-3.1875 5.125 -3.1875 5.125 -3 2 C-2.01 1.34 -1.02 0.68 0 0 Z " fill="#C74E39" transform="translate(699,338)"/>
<path d="M0 0 C2.125 0.375 2.125 0.375 4 1 C4 2.65 4 4.3 4 6 C2.35 6.33 0.7 6.66 -1 7 C-1.625 4.625 -1.625 4.625 -2 2 C-1.34 1.34 -0.68 0.68 0 0 Z " fill="#313131" transform="translate(308,303)"/>
<path d="M0 0 C1.65 0.33 3.3 0.66 5 1 C5 2.65 5 4.3 5 6 C3.125 6.625 3.125 6.625 1 7 C0.34 6.34 -0.32 5.68 -1 5 C-0.625 2.375 -0.625 2.375 0 0 Z " fill="#303030" transform="translate(933,416)"/>
<path d="M0 0 C1.32 0.33 2.64 0.66 4 1 C4.33 2.32 4.66 3.64 5 5 C2.69 5.66 0.38 6.32 -2 7 C-1.34 4.69 -0.68 2.38 0 0 Z " fill="#C4452E" transform="translate(96,352)"/>
<path d="M0 0 C1.65 0.33 3.3 0.66 5 1 C4.67 2.65 4.34 4.3 4 6 C2.35 5.67 0.7 5.34 -1 5 C-0.67 3.35 -0.34 1.7 0 0 Z " fill="#232323" transform="translate(346,319)"/>
<path d="M0 0 C1.65 0.33 3.3 0.66 5 1 C4.67 2.65 4.34 4.3 4 6 C2.35 5.67 0.7 5.34 -1 5 C-0.67 3.35 -0.34 1.7 0 0 Z " fill="#C4442D" transform="translate(738,305)"/>
<path d="M0 0 C2 0.25 2 0.25 4 1 C4.33 1.99 4.66 2.98 5 4 C3.6875 5.5 3.6875 5.5 2 7 C1.01 7 0.02 7 -1 7 C-1.04254356 5.00045254 -1.04080783 2.99958364 -1 1 C-0.67 0.67 -0.34 0.34 0 0 Z " fill="#C4412B" transform="translate(717,297)"/>
<path d="M0 0 C2.0625 0.4375 2.0625 0.4375 4 1 C4.33 2.32 4.66 3.64 5 5 C3.35 5.33 1.7 5.66 0 6 C-0.38218767 4.34385343 -0.71395102 2.67542976 -1 1 C-0.67 0.67 -0.34 0.34 0 0 Z " fill="#2A2A2A" transform="translate(14,415)"/>
<path d="M0 0 C-0.33 1.65 -0.66 3.3 -1 5 C-2.65 4.67 -4.3 4.34 -6 4 C-6 2.68 -6 1.36 -6 0 C-3 -1 -3 -1 0 0 Z " fill="#C4442D" transform="translate(169,301)"/>
<path d="M0 0 C2.125 0.375 2.125 0.375 4 1 C3.67 2.32 3.34 3.64 3 5 C1.68 5.33 0.36 5.66 -1 6 C-1.625 4.125 -1.625 4.125 -2 2 C-1.34 1.34 -0.68 0.68 0 0 Z " fill="#C54A34" transform="translate(307,332)"/>
<path d="M0 0 C-1.36733192 4.10199576 -3.5163017 5.52121467 -7 8 C-9.875 8.3125 -9.875 8.3125 -12 8 C-10.33333333 6.66666667 -8.66666667 5.33333333 -7 4 C-5.6696875 2.88625 -5.6696875 2.88625 -4.3125 1.75 C-2 0 -2 0 0 0 Z " fill="#C52323" transform="translate(714,330)"/>
<path d="M0 0 C0 0.33 0 0.66 0 1 C-2.06168985 1.19620767 -4.12440998 1.38160753 -6.1875 1.5625 C-7.33605469 1.66691406 -8.48460937 1.77132813 -9.66796875 1.87890625 C-12.68631199 1.98859985 -15.08923936 1.74002389 -18 1 C-18 0.67 -18 0.34 -18 0 C-11.84098757 -1.23180249 -6.21324498 -0.73030908 0 0 Z " fill="#C93636" transform="translate(763,295)"/>
<path d="M0 0 C1.74216797 0.15275391 1.74216797 0.15275391 3.51953125 0.30859375 C4.39996094 0.39238281 5.28039062 0.47617187 6.1875 0.5625 C6.1875 0.8925 6.1875 1.2225 6.1875 1.5625 C-0.02574498 2.29280908 -5.65348757 2.79430249 -11.8125 1.5625 C-11.8125 1.2325 -11.8125 0.9025 -11.8125 0.5625 C-7.71524731 -0.47917441 -4.19754776 -0.38159525 0 0 Z " fill="#CB624F" transform="translate(191.8125,316.4375)"/>
<path d="M0 0 C0.66 0.33 1.32 0.66 2 1 C2 2.65 2 4.3 2 6 C0.68 6.33 -0.64 6.66 -2 7 C-2.6875 5.1875 -2.6875 5.1875 -3 3 C-1.5625 1.25 -1.5625 1.25 0 0 Z " fill="#C4432B" transform="translate(896,401)"/>
<path d="M0 0 C1.98 0.495 1.98 0.495 4 1 C3.67 2.65 3.34 4.3 3 6 C1.68 5.67 0.36 5.34 -1 5 C-0.67 3.35 -0.34 1.7 0 0 Z " fill="#373737" transform="translate(694,380)"/>
<path d="M0 0 C1.98 0.495 1.98 0.495 4 1 C3.67 2.65 3.34 4.3 3 6 C1.68 5.67 0.36 5.34 -1 5 C-0.67 3.35 -0.34 1.7 0 0 Z " fill="#333333" transform="translate(639,362)"/>
<path d="M0 0 C1.65 0.33 3.3 0.66 5 1 C4.67 2.32 4.34 3.64 4 5 C2.35 4.67 0.7 4.34 -1 4 C-0.67 2.68 -0.34 1.36 0 0 Z " fill="#363636" transform="translate(172,358)"/>
<path d="M0 0 C1.32 0 2.64 0 4 0 C3.67 1.65 3.34 3.3 3 5 C1.35 4.67 -0.3 4.34 -2 4 C-1.34 2.68 -0.68 1.36 0 0 Z " fill="#C3432B" transform="translate(89,423)"/>
<path d="M0 0 C-0.66 0.66 -1.32 1.32 -2 2 C-5.0390625 1.9765625 -5.0390625 1.9765625 -8.625 1.625 C-9.81351562 1.51414062 -11.00203125 1.40328125 -12.2265625 1.2890625 C-13.14179688 1.19367188 -14.05703125 1.09828125 -15 1 C-15 0.67 -15 0.34 -15 0 C-9.96266834 -1.5111995 -5.11828973 -0.64599773 0 0 Z " fill="#CA5C48" transform="translate(277,329)"/>
<path d="M0 0 C-3.64418341 2.42945561 -4.92923364 2.0828781 -9.1875 1.625 C-10.27417969 1.51414062 -11.36085937 1.40328125 -12.48046875 1.2890625 C-13.31191406 1.19367188 -14.14335937 1.09828125 -15 1 C-15 0.67 -15 0.34 -15 0 C-9.96266834 -1.5111995 -5.11828973 -0.64599773 0 0 Z " fill="#CA5E4A" transform="translate(236,323)"/>
<path d="M0 0 C1.32 0 2.64 0 4 0 C4 1.65 4 3.3 4 5 C2.35 4.67 0.7 4.34 -1 4 C-0.67 2.68 -0.34 1.36 0 0 Z " fill="#303030" transform="translate(800,352)"/>
<path d="M0 0 C2.475 0.495 2.475 0.495 5 1 C4.67 2.32 4.34 3.64 4 5 C2.68 5 1.36 5 0 5 C0 3.35 0 1.7 0 0 Z " fill="#2C2C2C" transform="translate(773,271)"/>
<path d="M0 0 C2.475 0.495 2.475 0.495 5 1 C4.67 2.32 4.34 3.64 4 5 C2.68 5 1.36 5 0 5 C0 3.35 0 1.7 0 0 Z " fill="#2B2B2B" transform="translate(84,245)"/>
<path d="M0 0 C2.475 0.495 2.475 0.495 5 1 C4.67 2.32 4.34 3.64 4 5 C2.68 4.67 1.36 4.34 0 4 C0 2.68 0 1.36 0 0 Z " fill="#2E2E2E" transform="translate(333,348)"/>
<path d="M0 0 C1.98 0.495 1.98 0.495 4 1 C3.67 2.32 3.34 3.64 3 5 C1.68 4.67 0.36 4.34 -1 4 C-0.67 2.68 -0.34 1.36 0 0 Z " fill="#484848" transform="translate(136,395)"/>
<path d="M0 0 C1.98 0.495 1.98 0.495 4 1 C3.67 2.32 3.34 3.64 3 5 C1.68 4.67 0.36 4.34 -1 4 C-0.67 2.68 -0.34 1.36 0 0 Z " fill="#474747" transform="translate(53,338)"/>
<path d="M0 0 C0.33 0.66 0.66 1.32 1 2 C0.22265625 3.9453125 0.22265625 3.9453125 -0.9375 6.125 C-1.31777344 6.84945313 -1.69804688 7.57390625 -2.08984375 8.3203125 C-2.39019531 8.87460937 -2.69054687 9.42890625 -3 10 C-3.66 10 -4.32 10 -5 10 C-3.84414715 6.08788267 -2.64465038 3.1254959 0 0 Z " fill="#C31515" transform="translate(717,303)"/>
<path d="M0 0 C1.98 0.495 1.98 0.495 4 1 C3.67 2.32 3.34 3.64 3 5 C1.68 4.67 0.36 4.34 -1 4 C-0.67 2.68 -0.34 1.36 0 0 Z " fill="#484848" transform="translate(661,293)"/>
<path d="M0 0 C1.98 0.495 1.98 0.495 4 1 C3.67 2.32 3.34 3.64 3 5 C1.68 4.67 0.36 4.34 -1 4 C-0.67 2.68 -0.34 1.36 0 0 Z " fill="#262626" transform="translate(668,289)"/>
<path d="M0 0 C1.67542976 0.28604898 3.34385343 0.61781233 5 1 C4.67 2.32 4.34 3.64 4 5 C3.34 5 2.68 5 2 5 C0.375 3 0.375 3 -1 1 C-0.67 0.67 -0.34 0.34 0 0 Z " fill="#464646" transform="translate(600,343)"/>
<path d="M0 0 C0.99 0.33 1.98 0.66 3 1 C3 2.65 3 4.3 3 6 C2.01 6 1.02 6 0 6 C-0.38218767 4.34385343 -0.71395102 2.67542976 -1 1 C-0.67 0.67 -0.34 0.34 0 0 Z " fill="#747474" transform="translate(762,365)"/>
<path d="M0 0 C0.66 0.66 1.32 1.32 2 2 C1.96712417 4.72869407 1.43602229 7.2966618 1 10 C-1.56687367 6.1496895 -0.83288724 4.41430237 0 0 Z " fill="#CB614E" transform="translate(904,359)"/>
<path d="M0 0 C1.65 0 3.3 0 5 0 C4.67 1.32 4.34 2.64 4 4 C2.68 3.67 1.36 3.34 0 3 C0 2.01 0 1.02 0 0 Z " fill="#3E3E3E" transform="translate(852,303)"/>
<path d="M0 0 C0.99 0.33 1.98 0.66 3 1 C2.67 2.32 2.34 3.64 2 5 C1.01 5 0.02 5 -1 5 C-0.67 3.35 -0.34 1.7 0 0 Z " fill="#333333" transform="translate(909,320)"/>
<path d="M0 0 C3.35595828 0.59927826 5.37801226 1.84622436 8 4 C6.25 4.6875 6.25 4.6875 4 5 C1.75 3.6875 1.75 3.6875 0 2 C0 1.34 0 0.68 0 0 Z " fill="#C95844" transform="translate(158,297)"/>
</svg>
