<svg width="232" height="320" viewBox="0 0 232 320" fill="none" xmlns="http://www.w3.org/2000/svg">
<path fill-rule="evenodd" clip-rule="evenodd" d="M185.584 16.2085C185.584 33.0594 199.245 46.7198 216.096 46.7198C223.248 46.7198 231.508 51.551 231.508 58.7037V300C231.508 311.046 222.554 320 211.508 320H20C8.95432 320 0 311.046 0 300V20C0 8.95431 8.95431 0 20 0H170.584C178.869 0 185.584 6.71573 185.584 15V16.2085Z" fill="url(#paint0_linear_135_195)"/>
<path fill-rule="evenodd" clip-rule="evenodd" d="M213.631 35.326C223.268 35.326 231.08 27.5139 231.08 17.8771C231.08 8.24033 223.268 0.428194 213.631 0.428194C203.995 0.428194 196.182 8.24033 196.182 17.8771C196.182 27.5139 203.995 35.326 213.631 35.326ZM213.631 35.7542C223.505 35.7542 231.508 27.7503 231.508 17.8771C231.508 8.00385 223.505 0 213.631 0C203.758 0 195.754 8.00385 195.754 17.8771C195.754 27.7503 203.758 35.7542 213.631 35.7542Z" fill="#ECECEC"/>
<path d="M214.067 7L214.271 12.167C214.396 15.3281 217.099 17.8633 220.467 17.9788L226.134 18.1732L220.467 18.3676C217.099 18.4831 214.396 21.0183 214.271 24.1794L214.067 29.3464L213.863 24.1794C213.738 21.0183 211.035 18.4831 207.667 18.3676L202 18.1732L207.667 17.9788C211.035 17.8633 213.738 15.3281 213.863 12.167L214.067 7Z" fill="#ECECEC"/>
<defs>
<linearGradient id="paint0_linear_135_195" x1="115.754" y1="0" x2="115.754" y2="268.8" gradientUnits="userSpaceOnUse">
<stop stop-color="#ECECEC"/>
<stop offset="1" stop-color="#8B8B8B"/>
</linearGradient>
</defs>
</svg>
